<?xml version="1.0" encoding="utf-8"?>
<!-- Generator: Adobe Illustrator 18.1.1, SVG Export Plug-In . SVG Version: 6.00 Build 0)  -->
<!DOCTYPE svg PUBLIC "-//W3C//DTD SVG 1.1//EN" "http://www.w3.org/Graphics/SVG/1.1/DTD/svg11.dtd">
<svg version="1.1" id="Layer_1" xmlns="http://www.w3.org/2000/svg" xmlns:xlink="http://www.w3.org/1999/xlink" x="0px" y="0px"
	 viewBox="0 0 500 500" enable-background="new 0 0 500 500" xml:space="preserve">
<path d="M228.9,137.8l-56.5,56.5c0,0,0,0-0.1,0c-0.1,0.1-0.2,0.3-0.4,0.5c-0.2,0.2-0.4,0.5-0.6,0.7c-0.1,0.2-0.2,0.4-0.3,0.6
	c-0.1,0.3-0.3,0.5-0.4,0.8c-0.1,0.3-0.2,0.5-0.2,0.8c-0.1,0.2-0.2,0.5-0.2,0.7c-0.1,0.5-0.2,1-0.2,1.5c0,0,0,0,0,0l0,0
	c0,0.5,0.1,1.1,0.2,1.6c0,0.2,0.1,0.4,0.2,0.7c0.1,0.3,0.1,0.6,0.3,0.8c0.1,0.3,0.3,0.5,0.4,0.7c0.1,0.2,0.2,0.4,0.3,0.6
	c0.2,0.3,0.4,0.5,0.6,0.7c0.1,0.2,0.2,0.3,0.4,0.5c0,0,0,0,0.1,0l56.5,56.5c3.1,3.1,8.2,3.1,11.3,0c1.6-1.6,2.3-3.6,2.3-5.7
	s-0.8-4.1-2.3-5.7L197.3,208H322c4.4,0,8-3.6,8-8s-3.6-8-8-8H197.3l42.9-42.9c1.6-1.6,2.3-3.6,2.3-5.7s-0.8-4.1-2.3-5.7
	C237.1,134.6,232,134.6,228.9,137.8z"/>
</svg>
