<?xml version="1.0" encoding="utf-8"?>
<!-- Generator: Adobe Illustrator 18.1.1, SVG Export Plug-In . SVG Version: 6.00 Build 0)  -->
<!DOCTYPE svg PUBLIC "-//W3C//DTD SVG 1.1//EN" "http://www.w3.org/Graphics/SVG/1.1/DTD/svg11.dtd">
<svg version="1.1" id="Layer_1" xmlns="http://www.w3.org/2000/svg" xmlns:xlink="http://www.w3.org/1999/xlink" x="0px" y="0px"
	 viewBox="0 0 500 500" enable-background="new 0 0 500 500" xml:space="preserve">
<path d="M312.2,221.1l-56.5,56.5c0,0,0,0,0,0.1c-0.1,0.1-0.3,0.2-0.5,0.4c-0.2,0.2-0.5,0.4-0.7,0.6c-0.2,0.1-0.4,0.2-0.6,0.3
	c-0.3,0.1-0.5,0.3-0.8,0.4c-0.3,0.1-0.5,0.2-0.8,0.2c-0.2,0.1-0.5,0.2-0.7,0.2c-0.5,0.1-1,0.2-1.5,0.2c0,0,0,0,0,0l0,0
	c-0.5,0-1.1-0.1-1.6-0.2c-0.2,0-0.4-0.1-0.7-0.2c-0.3-0.1-0.6-0.1-0.8-0.3c-0.3-0.1-0.5-0.3-0.7-0.4c-0.2-0.1-0.4-0.2-0.6-0.3
	c-0.3-0.2-0.5-0.4-0.7-0.6c-0.2-0.1-0.3-0.2-0.5-0.4c0,0,0,0,0-0.1l-56.5-56.5c-3.1-3.1-3.1-8.2,0-11.3c1.6-1.6,3.6-2.3,5.7-2.3
	s4.1,0.8,5.7,2.3l42.9,42.9V128c0-4.4,3.6-8,8-8s8,3.6,8,8v124.7l42.9-42.9c1.6-1.6,3.6-2.3,5.7-2.3s4.1,0.8,5.7,2.3
	C315.4,212.9,315.4,218,312.2,221.1z"/>
</svg>
