<?xml version="1.0" encoding="utf-8"?>
<!-- Generator: Adobe Illustrator 18.1.1, SVG Export Plug-In . SVG Version: 6.00 Build 0)  -->
<!DOCTYPE svg PUBLIC "-//W3C//DTD SVG 1.1//EN" "http://www.w3.org/Graphics/SVG/1.1/DTD/svg11.dtd">
<svg version="1.1" id="Layer_1" xmlns="http://www.w3.org/2000/svg" xmlns:xlink="http://www.w3.org/1999/xlink" x="0px" y="0px"
	 viewBox="0 0 500 500" enable-background="new 0 0 500 500" xml:space="preserve">
<path d="M271.1,137.8l56.5,56.5c0,0,0,0,0.1,0c0.1,0.1,0.2,0.3,0.4,0.5c0.2,0.2,0.4,0.5,0.6,0.7c0.1,0.2,0.2,0.4,0.3,0.6
	c0.1,0.3,0.3,0.5,0.4,0.8c0.1,0.3,0.2,0.5,0.2,0.8c0.1,0.2,0.2,0.5,0.2,0.7c0.1,0.5,0.2,1,0.2,1.5c0,0,0,0,0,0l0,0
	c0,0.5-0.1,1.1-0.2,1.6c0,0.2-0.1,0.4-0.2,0.7c-0.1,0.3-0.1,0.6-0.3,0.8c-0.1,0.3-0.3,0.5-0.4,0.7c-0.1,0.2-0.2,0.4-0.3,0.6
	c-0.2,0.3-0.4,0.5-0.6,0.7c-0.1,0.2-0.2,0.3-0.4,0.5c0,0,0,0-0.1,0l-56.5,56.5c-3.1,3.1-8.2,3.1-11.3,0c-1.6-1.6-2.3-3.6-2.3-5.7
	s0.8-4.1,2.3-5.7l42.9-42.9H178c-4.4,0-8-3.6-8-8s3.6-8,8-8h124.7l-42.9-42.9c-1.6-1.6-2.3-3.6-2.3-5.7s0.8-4.1,2.3-5.7
	C262.9,134.6,268,134.6,271.1,137.8z"/>
</svg>
