<?xml version="1.0" encoding="utf-8"?>
<!-- Generator: Adobe Illustrator 18.1.1, SVG Export Plug-In . SVG Version: 6.00 Build 0)  -->
<!DOCTYPE svg PUBLIC "-//W3C//DTD SVG 1.1//EN" "http://www.w3.org/Graphics/SVG/1.1/DTD/svg11.dtd">
<svg version="1.1" id="Layer_1" xmlns="http://www.w3.org/2000/svg" xmlns:xlink="http://www.w3.org/1999/xlink" x="0px" y="0px"
	 viewBox="0 0 500 500" enable-background="new 0 0 500 500" xml:space="preserve">
<g>
	<path d="M322,128H178c-4.4,0-8,3.6-8,8v32c0,4.4,3.6,8,8,8h0.6l5.4,72.3c0.2,13.1,10.9,23.7,24,23.7h84c13.1,0,23.8-10.6,24-23.7
		l5.4-72.3h0.6c4.4,0,8-3.6,8-8v-32C330,131.6,326.4,128,322,128z M186,144h128v16H186V144z M300,247.4c0,0.2,0,0.4,0,0.6
		c0,4.4-3.6,8-8,8h-84c-4.4,0-8-3.6-8-8c0-0.2,0-0.4,0-0.6l-5.4-71.4h110.8L300,247.4z"/>
	<path d="M218,236c4.4,0,8-3.6,8-8v-28c0-4.4-3.6-8-8-8s-8,3.6-8,8v28C210,232.4,213.6,236,218,236z"/>
	<path d="M250,236c4.4,0,8-3.6,8-8v-28c0-4.4-3.6-8-8-8s-8,3.6-8,8v28C242,232.4,245.6,236,250,236z"/>
	<path d="M282,236c4.4,0,8-3.6,8-8v-28c0-4.4-3.6-8-8-8s-8,3.6-8,8v28C274,232.4,277.6,236,282,236z"/>
</g>
</svg>
