<?xml version="1.0" encoding="utf-8"?>
<!-- Generator: Adobe Illustrator 18.1.1, SVG Export Plug-In . SVG Version: 6.00 Build 0)  -->
<!DOCTYPE svg PUBLIC "-//W3C//DTD SVG 1.1//EN" "http://www.w3.org/Graphics/SVG/1.1/DTD/svg11.dtd">
<svg version="1.1" id="Layer_1" xmlns="http://www.w3.org/2000/svg" xmlns:xlink="http://www.w3.org/1999/xlink" x="0px" y="0px"
	 viewBox="0 0 500 500" enable-background="new 0 0 500 500" xml:space="preserve">
<path d="M306,124c-0.4,0-0.8,0-1.1,0.1l-54.9,7.8l-54.9-7.8c-0.4-0.1-0.8-0.1-1.1-0.1c-13.2,0-24,10.8-24,24v96
	c0,13,10.4,23.7,23.4,24l55.5,7.9c0.4,0.1,0.7,0.1,1.1,0.1s0.8,0,1.1-0.1l55.5-7.9c12.9-0.3,23.4-11,23.4-24v-96
	C330,134.8,319.2,124,306,124z M194,252c-4.4,0-8-3.6-8-8v-96c0-4.3,3.3-7.7,7.5-8l48.5,6.9v111.8l-46.9-6.7
	C194.8,252,194.4,252,194,252z M314,244c0,4.4-3.6,8-8,8c-0.4,0-0.8,0-1.1,0.1l-46.9,6.7V146.9l48.5-6.9c4.2,0.2,7.5,3.7,7.5,8V244z
	"/>
</svg>
