<?xml version="1.0" encoding="utf-8"?>
<!-- Generator: Adobe Illustrator 18.1.1, SVG Export Plug-In . SVG Version: 6.00 Build 0)  -->
<!DOCTYPE svg PUBLIC "-//W3C//DTD SVG 1.1//EN" "http://www.w3.org/Graphics/SVG/1.1/DTD/svg11.dtd">
<svg version="1.1" id="Layer_1" xmlns="http://www.w3.org/2000/svg" xmlns:xlink="http://www.w3.org/1999/xlink" x="0px" y="0px"
	 viewBox="0 0 500 500" enable-background="new 0 0 500 500" xml:space="preserve">
<g>
	<path d="M306,132h-16v-4c0-4.4-3.6-8-8-8s-8,3.6-8,8v4h-48v-4c0-4.4-3.6-8-8-8s-8,3.6-8,8v4h-16c-13.2,0-24,10.8-24,24v100
		c0,13.2,10.8,24,24,24h112c13.2,0,24-10.8,24-24V156C330,142.8,319.2,132,306,132z M194,148h16v4c0,4.4,3.6,8,8,8s8-3.6,8-8v-4h48
		v4c0,4.4,3.6,8,8,8s8-3.6,8-8v-4h16c4.4,0,8,3.6,8,8v12H186v-12C186,151.6,189.6,148,194,148z M306,264H194c-4.4,0-8-3.6-8-8v-72
		h128v72C314,260.4,310.4,264,306,264z"/>
	<path d="M290,200h-80c-4.4,0-8,3.6-8,8s3.6,8,8,8h80c4.4,0,8-3.6,8-8S294.4,200,290,200z"/>
	<path d="M258,232h-48c-4.4,0-8,3.6-8,8s3.6,8,8,8h48c4.4,0,8-3.6,8-8S262.4,232,258,232z"/>
</g>
</svg>
