<?xml version="1.0" encoding="utf-8"?>
<!-- Generator: Adobe Illustrator 18.1.1, SVG Export Plug-In . SVG Version: 6.00 Build 0)  -->
<!DOCTYPE svg PUBLIC "-//W3C//DTD SVG 1.1//EN" "http://www.w3.org/Graphics/SVG/1.1/DTD/svg11.dtd">
<svg version="1.1" id="Layer_1" xmlns="http://www.w3.org/2000/svg" xmlns:xlink="http://www.w3.org/1999/xlink" x="0px" y="0px"
	 viewBox="0 0 500 500" enable-background="new 0 0 500 500" xml:space="preserve">
<g>
	<path d="M306,120H194c-13.2,0-24,10.8-24,24v112c0,13.2,10.8,24,24,24h112c13.2,0,24-10.8,24-24V144C330,130.8,319.2,120,306,120z
		 M314,256c0,4.4-3.6,8-8,8H194c-4.4,0-8-3.6-8-8v-48h33.1c3.6,13.8,16.1,24,30.9,24s27.4-10.2,30.9-24H314V256z M234,200
		c0-8.8,7.2-16,16-16s16,7.2,16,16s-7.2,16-16,16S234,208.8,234,200z M314,192h-33.1c-3.6-13.8-16.1-24-30.9-24s-27.4,10.2-30.9,24
		H186v-48c0-4.4,3.6-8,8-8h112c4.4,0,8,3.6,8,8V192z"/>
	<path d="M284.4,154.4c-1.5,1.5-2.4,3.5-2.4,5.6s0.8,4.2,2.4,5.6c1.5,1.5,3.5,2.4,5.6,2.4s4.2-0.8,5.6-2.4c1.5-1.5,2.4-3.5,2.4-5.6
		s-0.8-4.2-2.4-5.6C292.7,151.4,287.3,151.4,284.4,154.4z"/>
</g>
</svg>
