<?xml version="1.0" encoding="utf-8"?>
<!-- Generator: Adobe Illustrator 18.1.1, SVG Export Plug-In . SVG Version: 6.00 Build 0)  -->
<!DOCTYPE svg PUBLIC "-//W3C//DTD SVG 1.1//EN" "http://www.w3.org/Graphics/SVG/1.1/DTD/svg11.dtd">
<svg version="1.1" id="Layer_1" xmlns="http://www.w3.org/2000/svg" xmlns:xlink="http://www.w3.org/1999/xlink" x="0px" y="0px"
	 viewBox="0 0 500 500" enable-background="new 0 0 500 500" xml:space="preserve">
<path d="M306,152h-24v-13.2c0-10.4-8.4-18.8-18.8-18.8h-27c-10,0-18.2,8.1-18.2,18.1c0,6.3,0,10.7,0,13.9h-24c-13.2,0-24,10.8-24,24
	v80c0,13.2,10.8,24,24,24h112c13.2,0,24-10.8,24-24v-80C330,162.8,319.2,152,306,152z M234,138.2c0-1.2,1-2.2,2.2-2.2h27
	c1.6,0,2.8,1.3,2.8,2.8V152h-32.1C233.9,149.5,233.9,145.3,234,138.2z M194,168h112c4.4,0,8,3.6,8,8v32h-24v-8c0-4.4-3.6-8-8-8
	s-8,3.6-8,8v8h-24h-24v-8c0-4.4-3.6-8-8-8s-8,3.6-8,8v8h-24v-32C186,171.6,189.6,168,194,168z M306,264H194c-4.4,0-8-3.6-8-8v-32h24
	v8c0,4.4,3.6,8,8,8s8-3.6,8-8v-8h24h24v8c0,4.4,3.6,8,8,8s8-3.6,8-8v-8h24v32C314,260.4,310.4,264,306,264z"/>
</svg>
