<?xml version="1.0" encoding="utf-8"?>
<!-- Generator: Adobe Illustrator 18.1.1, SVG Export Plug-In . SVG Version: 6.00 Build 0)  -->
<!DOCTYPE svg PUBLIC "-//W3C//DTD SVG 1.1//EN" "http://www.w3.org/Graphics/SVG/1.1/DTD/svg11.dtd">
<svg version="1.1" id="Layer_1" xmlns="http://www.w3.org/2000/svg" xmlns:xlink="http://www.w3.org/1999/xlink" x="0px" y="0px"
	 viewBox="0 0 500 500" enable-background="new 0 0 500 500" xml:space="preserve">
<g>
	<path d="M194,188h40c4.4,0,8-3.6,8-8v-40c0-4.4-3.6-8-8-8h-40c-4.4,0-8,3.6-8,8v40C186,184.4,189.6,188,194,188z M202,148h24v24
		h-24V148z"/>
	<path d="M306,132h-40c-4.4,0-8,3.6-8,8v40c0,4.4,3.6,8,8,8h40c4.4,0,8-3.6,8-8v-40C314,135.6,310.4,132,306,132z M298,172h-24v-24
		h24V172z"/>
	<path d="M306,212H194c-4.4,0-8,3.6-8,8s3.6,8,8,8h112c4.4,0,8-3.6,8-8S310.4,212,306,212z"/>
	<path d="M306,252H194c-4.4,0-8,3.6-8,8c0,4.4,3.6,8,8,8h112c4.4,0,8-3.6,8-8S310.4,252,306,252z"/>
</g>
</svg>
