<?xml version="1.0" encoding="utf-8"?>
<!-- Generator: Adobe Illustrator 18.1.1, SVG Export Plug-In . SVG Version: 6.00 Build 0)  -->
<!DOCTYPE svg PUBLIC "-//W3C//DTD SVG 1.1//EN" "http://www.w3.org/Graphics/SVG/1.1/DTD/svg11.dtd">
<svg version="1.1" id="Layer_1" xmlns="http://www.w3.org/2000/svg" xmlns:xlink="http://www.w3.org/1999/xlink" x="0px" y="0px"
	 viewBox="0 0 500 500" enable-background="new 0 0 500 500" xml:space="preserve">
<g>
	<path d="M322.4,200c-4.4-0.5-8.3,2.7-8.8,7.1c-1.6,14.6-8,27.8-18.4,38.1C283.2,257.3,267.1,264,250,264s-33.2-6.7-45.3-18.7
		c-25-25-25-65.6,0-90.5c19.5-19.4,49.1-24.3,73.7-12.1c4,2,8.8,0.3,10.7-3.6c2-4,0.3-8.8-3.6-10.7c-30.8-15.3-67.8-9.2-92.1,15.1
		c-31.2,31.2-31.2,81.9,0,113.1c15.1,15.1,35.2,23.4,56.6,23.4s41.5-8.3,56.6-23.4c12.8-12.8,20.9-29.7,22.9-47.7
		C330,204.5,326.8,200.5,322.4,200z"/>
	<path d="M227.7,190.3c-3.1-3.1-8.2-3.1-11.3,0c-3.1,3.1-3.1,8.2,0,11.3l28,28c1.6,1.6,3.6,2.3,5.7,2.3s4.1-0.8,5.7-2.3l64-64
		c3.1-3.1,3.1-8.2,0-11.3s-8.2-3.1-11.3,0L250,212.7L227.7,190.3z"/>
</g>
</svg>
