<?xml version="1.0" encoding="utf-8"?>
<!-- Generator: Adobe Illustrator 18.1.1, SVG Export Plug-In . SVG Version: 6.00 Build 0)  -->
<!DOCTYPE svg PUBLIC "-//W3C//DTD SVG 1.1//EN" "http://www.w3.org/Graphics/SVG/1.1/DTD/svg11.dtd">
<svg version="1.1" id="Layer_1" xmlns="http://www.w3.org/2000/svg" xmlns:xlink="http://www.w3.org/1999/xlink" x="0px" y="0px"
	 viewBox="0 0 500 500" enable-background="new 0 0 500 500" xml:space="preserve">
<g>
	<path d="M170,200c0,21.4,8.3,41.5,23.4,56.6c15.1,15.1,35.2,23.4,56.6,23.4s41.5-8.3,56.6-23.4c31.2-31.2,31.2-81.9,0-113.1
		C291.5,128.3,271.4,120,250,120c-21.4,0-41.5,8.3-56.6,23.4C178.4,158.5,170,178.6,170,200z M186,200c0-17.1,6.7-33.2,18.7-45.3
		c12.1-12.1,28.2-18.7,45.3-18.7s33.2,6.7,45.3,18.7c25,25,25,65.6,0,90.5C283.2,257.3,267.1,264,250,264s-33.2-6.7-45.3-18.7
		S186,217.1,186,200z"/>
	<path d="M232.4,162.3c3.1-3.1,8.2-3.1,11.3,0l32,32c0.7,0.7,1.2,1.5,1.6,2.4c0,0.1,0.1,0.1,0.1,0.2c0.1,0.3,0.2,0.7,0.3,1.1
		c0,0.1,0.1,0.3,0.1,0.4c0.2,1,0.2,2.1,0,3.1c0,0.1-0.1,0.3-0.1,0.4c-0.1,0.4-0.2,0.7-0.3,1.1c0,0.1-0.1,0.1-0.1,0.2
		c-0.4,0.9-0.9,1.7-1.6,2.4l-32,32c-1.6,1.6-3.6,2.3-5.7,2.3s-4.1-0.8-5.7-2.3c-3.1-3.1-3.1-8.2,0-11.3l26.3-26.3l-26.3-26.3
		C229.3,170.5,229.3,165.5,232.4,162.3z"/>
</g>
</svg>
