<?xml version="1.0" encoding="utf-8"?>
<!-- Generator: Adobe Illustrator 18.1.1, SVG Export Plug-In . SVG Version: 6.00 Build 0)  -->
<!DOCTYPE svg PUBLIC "-//W3C//DTD SVG 1.1//EN" "http://www.w3.org/Graphics/SVG/1.1/DTD/svg11.dtd">
<svg version="1.1" id="Layer_1" xmlns="http://www.w3.org/2000/svg" xmlns:xlink="http://www.w3.org/1999/xlink" x="0px" y="0px"
	 viewBox="0 0 500 500" enable-background="new 0 0 500 500" xml:space="preserve">
<g>
	<path d="M250,280c21.4,0,41.5-8.3,56.6-23.4c15.1-15.1,23.4-35.2,23.4-56.6s-8.3-41.5-23.4-56.6c-31.2-31.2-81.9-31.2-113.1,0
		C178.3,158.5,170,178.6,170,200s8.3,41.5,23.4,56.6C208.6,271.7,228.6,280,250,280z M250,264c-17.1,0-33.2-6.7-45.3-18.7
		C192.7,233.1,186,217.1,186,200c0-17.1,6.7-33.2,18.7-45.3c25-25,65.6-25,90.5,0c12.1,12.1,18.7,28.2,18.7,45.3
		s-6.7,33.2-18.7,45.3C283.2,257.3,267.1,264,250,264z"/>
	<path d="M212.4,217.6c-3.1-3.1-3.1-8.2,0-11.3l32-32c0.7-0.7,1.5-1.2,2.4-1.6c0.1,0,0.1-0.1,0.2-0.1c0.3-0.1,0.7-0.2,1.1-0.3
		c0.1,0,0.3-0.1,0.4-0.1c1-0.2,2.1-0.2,3.1,0c0.1,0,0.3,0.1,0.4,0.1c0.4,0.1,0.7,0.2,1.1,0.3c0.1,0,0.1,0.1,0.2,0.1
		c0.9,0.4,1.7,0.9,2.4,1.6l32,32c1.6,1.6,2.3,3.6,2.3,5.7s-0.8,4.1-2.3,5.7c-3.1,3.1-8.2,3.1-11.3,0L250,191.3l-26.3,26.3
		C220.6,220.8,215.5,220.8,212.4,217.6z"/>
</g>
</svg>
