<?xml version="1.0" encoding="utf-8"?>
<!-- Generator: Adobe Illustrator 18.1.1, SVG Export Plug-In . SVG Version: 6.00 Build 0)  -->
<!DOCTYPE svg PUBLIC "-//W3C//DTD SVG 1.1//EN" "http://www.w3.org/Graphics/SVG/1.1/DTD/svg11.dtd">
<svg version="1.1" id="Layer_1" xmlns="http://www.w3.org/2000/svg" xmlns:xlink="http://www.w3.org/1999/xlink" x="0px" y="0px"
	 viewBox="0 0 500 500" enable-background="new 0 0 500 500" xml:space="preserve">
<g>
	<path d="M193.5,143.5C178.3,158.6,170,178.7,170,200s8.3,41.5,23.4,56.6c31.2,31.2,81.9,31.2,113.1,0
		c15.1-15.1,23.4-35.2,23.4-56.6s-8.3-41.5-23.4-56.6C291.5,128.3,271.4,120,250,120C228.6,120,208.6,128.3,193.5,143.5z
		 M295.3,154.8c12.1,12.1,18.7,28.2,18.7,45.3s-6.7,33.2-18.7,45.3c-25,25-65.6,25-90.5,0C192.7,233.2,186,217.1,186,200
		c0-17.1,6.7-33.2,18.7-45.3S232.9,136,250,136S283.2,142.7,295.3,154.8z"/>
	<path d="M212.4,182.4c-3.1,3.1-3.1,8.2,0,11.3l32,32c0.7,0.7,1.5,1.2,2.4,1.6c0.1,0,0.1,0.1,0.2,0.1c0.3,0.1,0.7,0.2,1.1,0.3
		c0.1,0,0.3,0.1,0.4,0.1c1,0.2,2.1,0.2,3.1,0c0.1,0,0.3-0.1,0.4-0.1c0.4-0.1,0.7-0.2,1.1-0.3c0.1,0,0.1-0.1,0.2-0.1
		c0.9-0.4,1.7-0.9,2.4-1.6l32-32c1.6-1.6,2.3-3.6,2.3-5.7s-0.8-4.1-2.3-5.7c-3.1-3.1-8.2-3.1-11.3,0L250,208.7l-26.3-26.3
		C220.6,179.2,215.5,179.2,212.4,182.4z"/>
</g>
</svg>
