<?xml version="1.0" encoding="utf-8"?>
<!-- Generator: Adobe Illustrator 18.1.1, SVG Export Plug-In . SVG Version: 6.00 Build 0)  -->
<!DOCTYPE svg PUBLIC "-//W3C//DTD SVG 1.1//EN" "http://www.w3.org/Graphics/SVG/1.1/DTD/svg11.dtd">
<svg version="1.1" id="Layer_1" xmlns="http://www.w3.org/2000/svg" xmlns:xlink="http://www.w3.org/1999/xlink" x="0px" y="0px"
	 viewBox="0 0 500 500" enable-background="new 0 0 500 500" xml:space="preserve">
<g>
	<path d="M306.6,143.4C291.5,128.3,271.4,120,250,120s-41.5,8.3-56.6,23.4c-31.2,31.2-31.2,81.9,0,113.1
		c15.1,15.1,35.2,23.4,56.6,23.4s41.5-8.3,56.6-23.4S330,221.4,330,200S321.7,158.5,306.6,143.4z M295.3,245.3
		C283.2,257.3,267.1,264,250,264s-33.2-6.7-45.3-18.7c-25-25-25-65.6,0-90.5c12.1-12.1,28.2-18.7,45.3-18.7
		c17.1,0,33.2,6.7,45.3,18.7c12.1,12.1,18.7,28.2,18.7,45.3S307.3,233.2,295.3,245.3z"/>
	<path d="M257.9,196.6c0.1-3.5,0.1-8.3,0.1-15.2c0-19.2,0-21.1-0.1-21.7c-0.2-4.4-3.9-7.9-8.3-7.7c-4.4,0.2-7.8,3.9-7.7,8.3
		c0.1,3.3,0,36.8,0,39.6l0,3.3l18.4,18.4c1.6,1.6,3.6,2.3,5.7,2.3s4.1-0.8,5.7-2.3c3.1-3.1,3.1-8.2,0-11.3L257.9,196.6z"/>
</g>
</svg>
