<?xml version="1.0" encoding="utf-8"?>
<!-- Generator: Adobe Illustrator 18.1.1, SVG Export Plug-In . SVG Version: 6.00 Build 0)  -->
<!DOCTYPE svg PUBLIC "-//W3C//DTD SVG 1.1//EN" "http://www.w3.org/Graphics/SVG/1.1/DTD/svg11.dtd">
<svg version="1.1" id="Layer_1" xmlns="http://www.w3.org/2000/svg" xmlns:xlink="http://www.w3.org/1999/xlink" x="0px" y="0px"
	 viewBox="0 0 500 500" enable-background="new 0 0 500 500" xml:space="preserve">
<path d="M283.9,154.7L250,188.7l-33.9-33.9c-3.1-3.1-8.2-3.1-11.3,0c-3.1,3.1-3.1,8.2,0,11.3l33.9,33.9l-33.9,33.9
	c-3.1,3.1-3.1,8.2,0,11.3c3.1,3.1,8.2,3.1,11.3,0l33.9-33.9l33.9,33.9c3.1,3.1,8.2,3.1,11.3,0c3.1-3.1,3.1-8.2,0-11.3L261.3,200
	l33.9-33.9c3.1-3.1,3.1-8.2,0-11.3C292.1,151.6,287.1,151.6,283.9,154.7z"/>
</svg>
