<?xml version="1.0" encoding="utf-8"?>
<!-- Generator: Adobe Illustrator 18.1.1, SVG Export Plug-In . SVG Version: 6.00 Build 0)  -->
<!DOCTYPE svg PUBLIC "-//W3C//DTD SVG 1.1//EN" "http://www.w3.org/Graphics/SVG/1.1/DTD/svg11.dtd">
<svg version="1.1" id="Layer_1" xmlns="http://www.w3.org/2000/svg" xmlns:xlink="http://www.w3.org/1999/xlink" x="0px" y="0px"
	 viewBox="0 0 500 500" enable-background="new 0 0 500 500" xml:space="preserve">
<g>
	<path d="M326.1,185.1l-15.3-9.2l3.1-18.6c0.4-2.5-0.4-5.1-2.2-7l-12-12c-1.8-1.8-4.4-2.7-7-2.2L275,139l-5.6-14c-1.2-3-4.2-5-7.4-5
		h-24c-3.3,0-6.2,2-7.4,5l-5.6,14l-17.6-2.9c-2.5-0.4-5.1,0.4-7,2.2l-12,12c-1.8,1.8-2.7,4.4-2.2,7L189,175l-14,5.6
		c-3,1.2-5,4.2-5,7.4v20c0,2.8,1.5,5.4,3.9,6.9l15.3,9.2l-3.1,18.6c-0.4,2.6,0.4,5.1,2.2,7l12,12c1.5,1.5,3.6,2.3,5.7,2.3
		c0.5,0,1-0.1,1.6-0.2l14.5-2.9l9.1,15.2c1.4,2.4,4,3.9,6.9,3.9h24c3.3,0,6.2-2,7.4-5l5.6-14l17.6,2.9c0.4,0.1,0.9,0.1,1.3,0.1
		c2.1,0,4.1-0.8,5.7-2.3l12-12c1.8-1.8,2.7-4.4,2.2-7l-3.1-18.6l15.3-9.2c2.4-1.4,3.9-4.1,3.9-6.9v-16
		C330,189.2,328.5,186.6,326.1,185.1z M314,203.5l-16.1,9.7c0,0,0,0-0.1,0.1c-0.3,0.2-0.5,0.4-0.8,0.6c-0.2,0.1-0.3,0.2-0.5,0.4
		c-0.2,0.2-0.3,0.4-0.5,0.5c-0.2,0.2-0.4,0.4-0.6,0.6c-0.1,0.1-0.2,0.3-0.3,0.5c-0.2,0.3-0.4,0.5-0.5,0.8c-0.1,0.2-0.2,0.4-0.2,0.7
		c-0.1,0.3-0.2,0.5-0.3,0.8c-0.1,0.2-0.1,0.5-0.1,0.7c0,0.3-0.1,0.6-0.1,0.9c0,0.2,0,0.4,0,0.6c0,0.3,0,0.7,0.1,1c0,0,0,0.1,0,0.1
		l3.3,19.9l-6.2,6.2l-19.9-3.3c-0.2,0-0.4,0-0.5,0c-0.3,0-0.7-0.1-1-0.1c-0.2,0-0.4,0.1-0.7,0.1c-0.3,0-0.6,0.1-0.9,0.1
		c-0.2,0.1-0.5,0.1-0.7,0.2c-0.3,0.1-0.5,0.2-0.8,0.3c-0.2,0.1-0.4,0.2-0.6,0.3c-0.2,0.1-0.5,0.3-0.7,0.4c-0.2,0.1-0.3,0.3-0.5,0.4
		c-0.2,0.2-0.4,0.4-0.6,0.6c-0.2,0.2-0.3,0.4-0.5,0.6c-0.2,0.2-0.3,0.4-0.5,0.6c-0.2,0.2-0.3,0.5-0.4,0.8c-0.1,0.2-0.2,0.4-0.3,0.6
		l-6,15h-14.1l-9.7-16.1c0-0.1-0.1-0.1-0.1-0.2c0-0.1-0.1-0.1-0.1-0.2c-0.1-0.2-0.3-0.3-0.4-0.5c-0.1-0.2-0.3-0.4-0.4-0.5
		c0,0-0.1-0.1-0.1-0.1c0,0-0.1-0.1-0.2-0.1c-0.1-0.1-0.2-0.2-0.3-0.2c-0.2-0.2-0.4-0.4-0.6-0.5c-0.2-0.1-0.4-0.2-0.6-0.3
		c-0.3-0.1-0.5-0.3-0.8-0.4c-0.2-0.1-0.4-0.1-0.6-0.2c-0.3-0.1-0.6-0.2-0.9-0.3c-0.2,0-0.4-0.1-0.6-0.1c-0.3,0-0.6-0.1-0.9-0.1
		c-0.2,0-0.4,0-0.6,0c-0.3,0-0.7,0-1,0.1c-0.1,0-0.1,0-0.2,0l-15.8,3.2l-6.1-6.1l3.3-19.9c0,0,0-0.1,0-0.1c0.1-0.3,0.1-0.7,0.1-1
		c0-0.2,0-0.4,0-0.6c0-0.3-0.1-0.5-0.1-0.8c0-0.3-0.1-0.5-0.1-0.8c-0.1-0.2-0.1-0.4-0.2-0.6c-0.1-0.3-0.2-0.6-0.3-0.8
		c-0.1-0.2-0.3-0.4-0.4-0.7c-0.1-0.2-0.2-0.4-0.4-0.7c-0.1-0.2-0.3-0.4-0.5-0.5c-0.2-0.2-0.4-0.4-0.6-0.6c-0.1-0.1-0.3-0.2-0.5-0.4
		c-0.3-0.2-0.5-0.4-0.8-0.6c0,0,0,0-0.1-0.1l-16.1-9.7v-10.1l14.9-5.9c0,0,0,0,0,0l0.1,0c0.2-0.1,0.3-0.2,0.5-0.2
		c0.3-0.1,0.6-0.3,0.9-0.5c0.2-0.1,0.4-0.3,0.6-0.5c0.2-0.2,0.4-0.3,0.6-0.5c0.2-0.2,0.4-0.4,0.5-0.6c0.2-0.2,0.3-0.4,0.5-0.6
		c0.2-0.2,0.3-0.5,0.4-0.7c0.1-0.2,0.3-0.4,0.4-0.7c0.1-0.2,0.2-0.5,0.2-0.7c0.1-0.2,0.2-0.5,0.2-0.7c0.1-0.3,0.1-0.6,0.1-0.8
		c0-0.2,0.1-0.5,0.1-0.7c0-0.4,0-0.7-0.1-1.1c0-0.2,0-0.3,0-0.5l0-0.1c0,0,0,0,0,0l-3.3-19.8l6.2-6.2l19.8,3.3c0,0,0,0,0,0l0.1,0
		c0.2,0,0.3,0,0.5,0c0.3,0,0.7,0.1,1,0.1c0.3,0,0.6-0.1,0.9-0.1c0.2,0,0.4,0,0.6-0.1c0.3-0.1,0.6-0.2,0.9-0.3
		c0.2-0.1,0.4-0.1,0.5-0.2c0.3-0.1,0.5-0.3,0.8-0.4c0.2-0.1,0.4-0.2,0.5-0.3c0.2-0.2,0.4-0.4,0.7-0.5c0.2-0.2,0.4-0.3,0.5-0.5
		c0.2-0.2,0.4-0.5,0.6-0.7c0.1-0.2,0.3-0.3,0.4-0.5c0.2-0.3,0.3-0.6,0.5-0.9c0.1-0.2,0.2-0.3,0.2-0.4l0-0.1c0,0,0,0,0,0l6-14.9h13.2
		l6,15c0,0,0,0.1,0.1,0.1c0.3,0.6,0.6,1.2,1.1,1.8c0.1,0.1,0.2,0.2,0.3,0.3c0.5,0.5,1,1,1.6,1.4c0.1,0.1,0.2,0.1,0.2,0.1
		c0.5,0.3,1.1,0.6,1.7,0.8c0.1,0,0.2,0.1,0.4,0.1c0.7,0.2,1.3,0.3,2.1,0.3c0,0,0.1,0,0.1,0c0.3,0,0.6-0.1,0.9-0.1c0.1,0,0.3,0,0.4,0
		l0.2,0l0,0l19.8-3.3l6.2,6.2l-3.3,19.9c0,0,0,0.1,0,0.1c-0.1,0.3-0.1,0.7-0.1,1c0,0.2,0,0.4,0,0.6c0,0.3,0.1,0.6,0.1,0.9
		c0,0.2,0,0.5,0.1,0.7c0.1,0.3,0.2,0.5,0.3,0.8c0.1,0.2,0.1,0.5,0.2,0.7c0.1,0.3,0.3,0.6,0.5,0.8c0.1,0.2,0.2,0.3,0.3,0.5
		c0.2,0.2,0.4,0.4,0.6,0.6c0.2,0.2,0.3,0.4,0.5,0.5c0.2,0.1,0.3,0.3,0.5,0.4c0.3,0.2,0.5,0.4,0.8,0.6c0,0,0,0,0.1,0.1l16.1,9.7
		V203.5z"/>
	<path d="M250,167.1c-17.6,0-32,14.4-32,32c0,17.6,14.4,32,32,32s32-14.4,32-32S267.6,167.1,250,167.1z M250,215.1
		c-8.8,0-16-7.2-16-16s7.2-16,16-16s16,7.2,16,16S258.8,215.1,250,215.1z"/>
</g>
</svg>
