<?xml version="1.0" encoding="utf-8"?>
<!-- Generator: Adobe Illustrator 18.1.1, SVG Export Plug-In . SVG Version: 6.00 Build 0)  -->
<!DOCTYPE svg PUBLIC "-//W3C//DTD SVG 1.1//EN" "http://www.w3.org/Graphics/SVG/1.1/DTD/svg11.dtd">
<svg version="1.1" id="Layer_1" xmlns="http://www.w3.org/2000/svg" xmlns:xlink="http://www.w3.org/1999/xlink" x="0px" y="0px"
	 viewBox="0 0 500 500" enable-background="new 0 0 500 500" xml:space="preserve">
<g>
	<path d="M250,120c-21.4,0-41.5,8.3-56.6,23.4C178.3,158.6,170,178.6,170,200c0,44.1,35.9,80,80,80c21.4,0,41.5-8.3,56.6-23.4
		S330,221.4,330,200c0-21.4-8.3-41.5-23.4-56.6C291.5,128.3,271.4,120,250,120z M314,200c0,17.1-6.7,33.2-18.7,45.3
		C283.2,257.4,267.1,264,250,264c-35.3,0-64-28.7-64-64c0-17.1,6.7-33.2,18.7-45.3S232.9,136,250,136s33.2,6.7,45.3,18.7
		C307.3,166.8,314,182.9,314,200z"/>
	<path d="M267,171.7l-17,17l-17-17c-3.1-3.1-8.2-3.1-11.3,0s-3.1,8.2,0,11.3l17,17l-17,17c-3.1,3.1-3.1,8.2,0,11.3s8.2,3.1,11.3,0
		l17-17l17,17c3.1,3.1,8.2,3.1,11.3,0s3.1-8.2,0-11.3l-17-17l17-17c3.1-3.1,3.1-8.2,0-11.3S270.1,168.6,267,171.7z"/>
</g>
</svg>
