<?xml version="1.0" encoding="utf-8"?>
<!-- Generator: Adobe Illustrator 18.1.1, SVG Export Plug-In . SVG Version: 6.00 Build 0)  -->
<!DOCTYPE svg PUBLIC "-//W3C//DTD SVG 1.1//EN" "http://www.w3.org/Graphics/SVG/1.1/DTD/svg11.dtd">
<svg version="1.1" id="Layer_1" xmlns="http://www.w3.org/2000/svg" xmlns:xlink="http://www.w3.org/1999/xlink" x="0px" y="0px"
	 viewBox="0 0 500 500" enable-background="new 0 0 500 500" xml:space="preserve">
<g>
	<path d="M244.3,245.7c0.4,0.4,0.8,0.7,1.2,1c0.2,0.1,0.4,0.2,0.6,0.3c0.3,0.1,0.5,0.3,0.8,0.4c0.3,0.1,0.5,0.2,0.8,0.3
		c0.2,0.1,0.4,0.2,0.7,0.2c0.5,0.1,1,0.2,1.6,0.2s1-0.1,1.6-0.2c0.2,0,0.5-0.1,0.7-0.2c0.3-0.1,0.5-0.1,0.8-0.2
		c0.3-0.1,0.5-0.3,0.8-0.4c0.2-0.1,0.4-0.2,0.6-0.3c0.4-0.3,0.9-0.6,1.2-1l56.6-56.6c3.1-3.1,3.1-8.2,0-11.3s-8.2-3.1-11.3,0
		L258,220.7V128c0-4.4-3.6-8-8-8s-8,3.6-8,8v92.7l-42.9-42.9c-3.1-3.1-8.2-3.1-11.3,0c-3.1,3.1-3.1,8.2,0,11.3L244.3,245.7z"/>
	<path d="M306,264H194c-4.4,0-8,3.6-8,8s3.6,8,8,8h112c4.4,0,8-3.6,8-8S310.4,264,306,264z"/>
</g>
</svg>
