<?xml version="1.0" encoding="utf-8"?>
<!-- Generator: Adobe Illustrator 18.1.1, SVG Export Plug-In . SVG Version: 6.00 Build 0)  -->
<!DOCTYPE svg PUBLIC "-//W3C//DTD SVG 1.1//EN" "http://www.w3.org/Graphics/SVG/1.1/DTD/svg11.dtd">
<svg version="1.1" id="Layer_1" xmlns="http://www.w3.org/2000/svg" xmlns:xlink="http://www.w3.org/1999/xlink" x="0px" y="0px"
	 viewBox="0 0 500 500" enable-background="new 0 0 500 500" xml:space="preserve">
<g>
	<path d="M306,184c-4.4,0-8,3.6-8,8v48.1c0,4.3-3.5,7.9-7.9,7.9h-80.2c-4.3,0-7.9-3.5-7.9-7.9v-80.2c0-4.3,3.5-7.9,7.9-7.9H258
		c4.4,0,8-3.6,8-8s-3.6-8-8-8h-48.1c-13.2,0-23.9,10.7-23.9,23.9v80.3c0,13.2,10.7,23.9,23.9,23.9h80.3c13.2,0,23.9-10.7,23.9-23.9
		V192C314,187.6,310.4,184,306,184z"/>
	<path d="M232.3,217.7c1.6,1.6,3.6,2.3,5.7,2.3s4.1-0.8,5.7-2.3l64-64c3.1-3.1,3.1-8.2,0-11.3s-8.2-3.1-11.3,0l-64,64
		C229.2,209.5,229.2,214.5,232.3,217.7z"/>
</g>
</svg>
