<?xml version="1.0" encoding="utf-8"?>
<!-- Generator: Adobe Illustrator 18.1.1, SVG Export Plug-In . SVG Version: 6.00 Build 0)  -->
<!DOCTYPE svg PUBLIC "-//W3C//DTD SVG 1.1//EN" "http://www.w3.org/Graphics/SVG/1.1/DTD/svg11.dtd">
<svg version="1.1" id="Layer_1" xmlns="http://www.w3.org/2000/svg" xmlns:xlink="http://www.w3.org/1999/xlink" x="0px" y="0px"
	 viewBox="0 0 500 500" enable-background="new 0 0 500 500" xml:space="preserve">
<g>
	<path d="M306,264H194c-4.4,0-8,3.6-8,8s3.6,8,8,8h112c4.4,0,8-3.6,8-8S310.4,264,306,264z"/>
	<path d="M204.8,248.8c10.2,0,28.6-3.2,35.6-10.2l67.9-67.9c9.4-9.4,9.4-24.6,0-33.9l-11.3-11.3c-4.5-4.5-10.5-7-17-7
		s-12.4,2.5-17,7l-16.7,16.7c-0.1,0.1-0.2,0.1-0.3,0.2c-0.1,0.1-0.1,0.2-0.2,0.3l-50.7,50.7c-6.2,6.2-8.8,20.3-9.5,24.5
		c-2.1,13-0.8,21.9,3.8,26.5C192.5,247.3,197.4,248.8,204.8,248.8z M274.3,136.8c3-3,8.3-3,11.3,0l11.3,11.3c3.1,3.1,3.1,8.2,0,11.3
		l-11.2,11.2c-10.9-11.2-17.8-18.3-22.4-22.8L274.3,136.8z M206.4,204.7l45.5-45.5c5.5,5.4,14.5,14.6,22.5,22.8L229,227.3
		c-2.3,2.1-14.4,5.5-24.3,5.5c-1.9,0-3.1-0.1-3.9-0.3C199.5,226.4,202.9,208.4,206.4,204.7z"/>
</g>
<g>
	<g>
		<path stroke="#231F20" stroke-width="4" stroke-linecap="round" stroke-linejoin="round" stroke-miterlimit="10" d="M202,192"/>
	</g>
</g>
</svg>
