<?xml version="1.0" encoding="utf-8"?>
<!-- Generator: Adobe Illustrator 18.1.1, SVG Export Plug-In . SVG Version: 6.00 Build 0)  -->
<!DOCTYPE svg PUBLIC "-//W3C//DTD SVG 1.1//EN" "http://www.w3.org/Graphics/SVG/1.1/DTD/svg11.dtd">
<svg version="1.1" id="Layer_1" xmlns="http://www.w3.org/2000/svg" xmlns:xlink="http://www.w3.org/1999/xlink" x="0px" y="0px"
	 viewBox="0 0 500 500" enable-background="new 0 0 500 500" xml:space="preserve">
<g>
	<path d="M274,200h-48c-4.4,0-8,3.6-8,8s3.6,8,8,8h48c4.4,0,8-3.6,8-8S278.4,200,274,200z"/>
	<path d="M274,232h-48c-4.4,0-8,3.6-8,8s3.6,8,8,8h48c4.4,0,8-3.6,8-8S278.4,232,274,232z"/>
	<path d="M313.9,175.5c0-0.3,0-0.6-0.1-0.9c0-0.2-0.1-0.5-0.2-0.7c-0.1-0.3-0.1-0.5-0.2-0.8c-0.1-0.2-0.2-0.5-0.3-0.7
		c-0.1-0.2-0.2-0.5-0.4-0.7c-0.2-0.2-0.3-0.5-0.5-0.7c-0.1-0.1-0.2-0.3-0.3-0.4l-44-48c0,0-0.1-0.1-0.1-0.1
		c-0.2-0.2-0.4-0.4-0.6-0.6c-0.2-0.2-0.4-0.3-0.6-0.5c-0.2-0.2-0.5-0.3-0.7-0.4c-0.2-0.1-0.4-0.3-0.7-0.4c-0.2-0.1-0.5-0.2-0.7-0.3
		c-0.2-0.1-0.5-0.2-0.7-0.2c-0.2-0.1-0.5-0.1-0.7-0.1c-0.3,0-0.6-0.1-0.9-0.1c-0.1,0-0.1,0-0.2,0h-52c-13.2,0-24,10.8-24,24v112
		c0,13.2,10.8,24,24,24h80c13.2,0,24-10.8,24-24v-80C314,175.8,314,175.7,313.9,175.5z M266,144.2l21.8,23.8H274c-4.4,0-8-3.6-8-8
		V144.2z M290,264h-80c-4.4,0-8-3.6-8-8V144c0-4.4,3.6-8,8-8h40v24c0,13.2,10.8,24,24,24h24v72C298,260.4,294.4,264,290,264z"/>
</g>
</svg>
