<?xml version="1.0" encoding="utf-8"?>
<!-- Generator: Adobe Illustrator 18.1.1, SVG Export Plug-In . SVG Version: 6.00 Build 0)  -->
<!DOCTYPE svg PUBLIC "-//W3C//DTD SVG 1.1//EN" "http://www.w3.org/Graphics/SVG/1.1/DTD/svg11.dtd">
<svg version="1.1" id="Layer_1" xmlns="http://www.w3.org/2000/svg" xmlns:xlink="http://www.w3.org/1999/xlink" x="0px" y="0px"
	 viewBox="0 0 500 500" enable-background="new 0 0 500 500" xml:space="preserve">
<path d="M290.3,128c-15.3,0-30.5,7-40.1,17.6C240.5,135,225.3,128,210,128c-26.5,0-48,21.5-48,48c0,10.5,3.3,20.4,9.6,28.8
	c0.5,0.7,1.1,1.2,1.8,1.7l55,59l0,0c5.1,6.4,12.9,10.3,21.2,10.5c0.1,0,0.3,0,0.4,0c0,0,0.1,0,0.1,0s0.1,0,0.1,0c0.1,0,0.3,0,0.4,0
	c8.2-0.2,16-4.1,21.1-10.5c0,0,0,0,0,0l55-59c0.7-0.5,1.3-1,1.8-1.7c6.3-8.4,9.6-18.3,9.6-28.8C338.3,149.5,316.8,128,290.3,128z
	 M210,144c13.7,0,28.1,8.4,32.8,19.2c0.1,0.2,0.2,0.3,0.3,0.5c0.1,0.3,0.3,0.5,0.4,0.8c0.1,0.2,0.3,0.4,0.5,0.6
	c0.2,0.2,0.3,0.4,0.5,0.6c0.2,0.2,0.4,0.3,0.6,0.5c0.2,0.2,0.4,0.3,0.6,0.5c0.2,0.2,0.5,0.3,0.8,0.4c0.2,0.1,0.3,0.2,0.5,0.3
	c0,0,0.1,0,0.1,0c0.3,0.1,0.6,0.2,0.8,0.3c0.2,0.1,0.4,0.1,0.7,0.2c0.3,0.1,0.5,0.1,0.8,0.1c0.3,0,0.5,0.1,0.8,0.1
	c0.3,0,0.5,0,0.8-0.1c0.3,0,0.5,0,0.8-0.1c0.2,0,0.4-0.1,0.7-0.2c0.3-0.1,0.6-0.2,0.9-0.3c0,0,0.1,0,0.1,0c0.2-0.1,0.3-0.2,0.5-0.3
	c0.3-0.1,0.5-0.3,0.8-0.4c0.2-0.1,0.4-0.3,0.6-0.5c0.2-0.2,0.4-0.3,0.6-0.5c0.2-0.2,0.3-0.4,0.5-0.6c0.2-0.2,0.3-0.4,0.5-0.6
	c0.2-0.2,0.3-0.5,0.4-0.8c0.1-0.2,0.2-0.3,0.3-0.5c4.7-10.8,19.1-19.2,32.8-19.2c17.6,0,32,14.4,32,32c0,6.6-2,12.9-5.8,18.2
	c-0.1,0.1-0.2,0.2-0.3,0.3l-56,60c-0.1,0.1-0.2,0.2-0.3,0.4c-0.1,0.1-0.2,0.2-0.3,0.3c-2.3,3-5.7,4.7-9.5,4.8
	c-3.8,0-7.2-1.8-9.5-4.8c-0.1-0.1-0.2-0.2-0.3-0.3c-0.1-0.1-0.2-0.2-0.3-0.4l-56-60c-0.1-0.1-0.2-0.2-0.3-0.3
	c-3.7-5.4-5.8-11.6-5.8-18.2C178,158.4,192.4,144,210,144z"/>
</svg>
