<?xml version="1.0" encoding="utf-8"?>
<!-- Generator: Adobe Illustrator 18.1.1, SVG Export Plug-In . SVG Version: 6.00 Build 0)  -->
<!DOCTYPE svg PUBLIC "-//W3C//DTD SVG 1.1//EN" "http://www.w3.org/Graphics/SVG/1.1/DTD/svg11.dtd">
<svg version="1.1" id="Layer_1" xmlns="http://www.w3.org/2000/svg" xmlns:xlink="http://www.w3.org/1999/xlink" x="0px" y="0px"
	 viewBox="0 0 500 500" enable-background="new 0 0 500 500" xml:space="preserve">
<g>
	<path d="M305.9,119.7h-112c-13.2,0-24,10.8-24,24v112c0,13.2,10.8,24,24,24h112c13.2,0,24-10.8,24-24v-112
		C329.9,130.5,319.1,119.7,305.9,119.7z M312.9,259.5l-36.3-35.2l13.3-13.3c2.1-2.1,5.9-2.1,8,0l16,16v28.7
		C313.9,257.1,313.5,258.4,312.9,259.5z M193.9,135.7h112c4.4,0,8,3.6,8,8v60.7l-4.7-4.7c-8.4-8.5-22.2-8.5-30.7,0l-13.5,13.5
		l-23.9-23.1c-8.5-8.5-22.2-8.5-30.5-0.2l-24.8,23.3v-69.5C185.9,139.3,189.5,135.7,193.9,135.7z M185.9,255.7v-20.5l36-33.8
		c2.1-2.1,5.8-2.2,8.1,0.1l64.3,62.2H193.9C189.5,263.7,185.9,260.2,185.9,255.7z"/>
	<circle cx="269.9" cy="171.7" r="12"/>
</g>
</svg>
