<?xml version="1.0" encoding="utf-8"?>
<!-- Generator: Adobe Illustrator 18.1.1, SVG Export Plug-In . SVG Version: 6.00 Build 0)  -->
<!DOCTYPE svg PUBLIC "-//W3C//DTD SVG 1.1//EN" "http://www.w3.org/Graphics/SVG/1.1/DTD/svg11.dtd">
<svg version="1.1" id="Layer_1" xmlns="http://www.w3.org/2000/svg" xmlns:xlink="http://www.w3.org/1999/xlink" x="0px" y="0px"
	 viewBox="0 0 500 500" enable-background="new 0 0 500 500" xml:space="preserve">
<path d="M328.6,143.1L306,120.4c-4.5-4.5-10.5-7-17-7c-6.4,0-12.5,2.5-17,7l-36.2,36.2c-4.5,4.5-7,10.5-7,17c0,1.6,0.2,3.2,0.5,4.8
	c-1.6-0.3-3.2-0.5-4.8-0.5c-6.4,0-12.4,2.5-17,7l-36.2,36.2c-4.5,4.5-7,10.5-7,17s2.5,12.4,7,17l22.6,22.6c4.5,4.5,10.5,7,17,7
	s12.5-2.5,17-7l36.2-36.2c5.9-5.9,8.1-14.1,6.5-21.7c1.6,0.3,3.2,0.5,4.8,0.5c6.4,0,12.4-2.5,17-7l36.2-36.2c4.5-4.5,7-10.5,7-17
	S333.2,147.6,328.6,143.1z M252.8,230.2l-36.2,36.2c-3,3-8.3,3-11.3,0l-22.6-22.6c-1.5-1.5-2.3-3.5-2.3-5.7s0.8-4.2,2.3-5.7
	l36.2-36.2c1.5-1.5,3.5-2.3,5.7-2.3c2.2,0,4.2,0.8,5.7,2.3l5.7,5.7l-19.8,19.8c-3.1,3.1-3.1,8.2,0,11.3c1.6,1.6,3.6,2.3,5.7,2.3
	s4.1-0.8,5.7-2.3l19.8-19.8l5.7,5.7C255.9,222,255.9,227.1,252.8,230.2z M317.3,165.7l-36.2,36.2c-3,3-8.3,3-11.3,0l-5.7-5.7
	l19.8-19.8c3.1-3.1,3.1-8.2,0-11.3s-8.2-3.1-11.3,0l-19.8,19.8l-5.7-5.7c-1.5-1.5-2.3-3.5-2.3-5.7c0-2.2,0.8-4.2,2.3-5.7l36.2-36.2
	c1.5-1.5,3.5-2.3,5.7-2.3c2.1,0,4.2,0.8,5.7,2.3l22.6,22.6c1.5,1.5,2.3,3.5,2.3,5.7C319.7,162.2,318.8,164.2,317.3,165.7z"/>
</svg>
