<?xml version="1.0" encoding="utf-8"?>
<!-- Generator: Adobe Illustrator 18.1.1, SVG Export Plug-In . SVG Version: 6.00 Build 0)  -->
<!DOCTYPE svg PUBLIC "-//W3C//DTD SVG 1.1//EN" "http://www.w3.org/Graphics/SVG/1.1/DTD/svg11.dtd">
<svg version="1.1" id="Layer_1" xmlns="http://www.w3.org/2000/svg" xmlns:xlink="http://www.w3.org/1999/xlink" x="0px" y="0px"
	 viewBox="0 0 500 500" enable-background="new 0 0 500 500" xml:space="preserve">
<g>
	<path d="M250,224c-4.4,0-8,3.6-8,8v24c0,4.4-3.6,8-8,8h-40c-4.4,0-8-3.6-8-8V144c0-4.4,3.6-8,8-8h40c4.4,0,8,3.6,8,8v24
		c0,4.4,3.6,8,8,8s8-3.6,8-8v-24c0-13.2-10.8-24-24-24h-40c-13.2,0-24,10.8-24,24v112c0,13.2,10.8,24,24,24h40c13.2,0,24-10.8,24-24
		v-24C258,227.6,254.4,224,250,224z"/>
	<path d="M328.4,204.8c0.1-0.1,0.2-0.2,0.3-0.3c0,0,0,0,0-0.1c0.1-0.2,0.2-0.4,0.3-0.6c0.1-0.3,0.3-0.5,0.4-0.8
		c0.1-0.3,0.2-0.5,0.3-0.8c0.1-0.2,0.2-0.4,0.2-0.7c0.2-1,0.2-2.1,0-3.1c0,0,0,0,0,0c0-0.2-0.1-0.4-0.2-0.7
		c-0.1-0.3-0.1-0.5-0.2-0.8c0,0,0,0,0,0c-0.1-0.3-0.3-0.5-0.4-0.8c-0.1-0.2-0.2-0.4-0.3-0.6c-0.3-0.4-0.6-0.9-1-1.2l-32-32
		c-3.1-3.1-8.2-3.1-11.3,0c-3.1,3.1-3.1,8.2,0,11.3l18.3,18.3H210c-4.4,0-8,3.6-8,8s3.6,8,8,8h92.7l-18.3,18.3
		c-3.1,3.1-3.1,8.2,0,11.3c1.6,1.6,3.6,2.3,5.7,2.3s4.1-0.8,5.7-2.3l32-32c0,0,0,0,0,0C327.9,205.4,328.1,205.1,328.4,204.8z"/>
</g>
</svg>
