<?xml version="1.0" encoding="utf-8"?>
<!-- Generator: Adobe Illustrator 18.1.1, SVG Export Plug-In . SVG Version: 6.00 Build 0)  -->
<!DOCTYPE svg PUBLIC "-//W3C//DTD SVG 1.1//EN" "http://www.w3.org/Graphics/SVG/1.1/DTD/svg11.dtd">
<svg version="1.1" id="Layer_1" xmlns="http://www.w3.org/2000/svg" xmlns:xlink="http://www.w3.org/1999/xlink" x="0px" y="0px"
	 viewBox="0 0 500 500" enable-background="new 0 0 500 500" xml:space="preserve">
<path d="M306,136H194c-13.2,0-24,10.8-24,24v80c0,13.2,10.8,24,24,24h112c13.2,0,24-10.8,24-24v-80C330,146.8,319.2,136,306,136z
	 M194,152h112c4.4,0,8,3.6,8,8v3.3l-64,35.6l-64-35.6V160C186,155.6,189.6,152,194,152z M306,248H194c-4.4,0-8-3.6-8-8v-58.4
	l60.1,33.4c1.2,0.7,2.5,1,3.9,1s2.7-0.3,3.9-1l60.1-33.4V240C314,244.4,310.4,248,306,248z"/>
</svg>
