<?xml version="1.0" encoding="utf-8"?>
<!-- Generator: Adobe Illustrator 18.1.1, SVG Export Plug-In . SVG Version: 6.00 Build 0)  -->
<!DOCTYPE svg PUBLIC "-//W3C//DTD SVG 1.1//EN" "http://www.w3.org/Graphics/SVG/1.1/DTD/svg11.dtd">
<svg version="1.1" id="Layer_1" xmlns="http://www.w3.org/2000/svg" xmlns:xlink="http://www.w3.org/1999/xlink" x="0px" y="0px"
	 viewBox="0 0 500 500" enable-background="new 0 0 500 500" xml:space="preserve">
<g>
	<path d="M250,216c13.2,0,24-10.8,24-24v-44c0-13.2-10.8-24-24-24s-24,10.8-24,24v44C226,205.2,236.8,216,250,216z M242,148
		c0-4.4,3.6-8,8-8s8,3.6,8,8v44c0,4.4-3.6,8-8,8s-8-3.6-8-8V148z"/>
	<path d="M306,192c0-4.4-3.6-8-8-8s-8,3.6-8,8c0,22.1-17.9,40-40,40s-40-17.9-40-40c0-4.4-3.6-8-8-8s-8,3.6-8,8
		c0,28.2,20.9,51.5,48,55.4V260h-8c-4.4,0-8,3.6-8,8s3.6,8,8,8h32c4.4,0,8-3.6,8-8s-3.6-8-8-8h-8v-12.6
		C285.1,243.5,306,220.2,306,192z"/>
</g>
</svg>
