<?xml version="1.0" encoding="utf-8"?>
<!-- Generator: Adobe Illustrator 18.1.1, SVG Export Plug-In . SVG Version: 6.00 Build 0)  -->
<!DOCTYPE svg PUBLIC "-//W3C//DTD SVG 1.1//EN" "http://www.w3.org/Graphics/SVG/1.1/DTD/svg11.dtd">
<svg version="1.1" id="Layer_1" xmlns="http://www.w3.org/2000/svg" xmlns:xlink="http://www.w3.org/1999/xlink" x="0px" y="0px"
	 viewBox="0 0 500 500" enable-background="new 0 0 500 500" xml:space="preserve">
<g>
	<path d="M250,186c-7.7,0-14,6.3-14,14s6.3,14,14,14s14-6.3,14-14S257.7,186,250,186z"/>
	<path d="M186,186c-7.7,0-14,6.3-14,14s6.3,14,14,14s14-6.3,14-14S193.7,186,186,186z"/>
	<path d="M314,186c-7.7,0-14,6.3-14,14s6.3,14,14,14s14-6.3,14-14S321.7,186,314,186z"/>
</g>
</svg>
