<?xml version="1.0" encoding="utf-8"?>
<!-- Generator: Adobe Illustrator 18.1.1, SVG Export Plug-In . SVG Version: 6.00 Build 0)  -->
<!DOCTYPE svg PUBLIC "-//W3C//DTD SVG 1.1//EN" "http://www.w3.org/Graphics/SVG/1.1/DTD/svg11.dtd">
<svg version="1.1" id="Layer_1" xmlns="http://www.w3.org/2000/svg" xmlns:xlink="http://www.w3.org/1999/xlink" x="0px" y="0px"
	 viewBox="0 0 500 500" enable-background="new 0 0 500 500" xml:space="preserve">
<path d="M308,160h-1.8v-26.2c0-7.6-6.2-13.8-13.8-13.8h-84.5c-7.6,0-13.8,6.2-13.8,13.8V160h-1.8c-12.2,0-22.2,10-22.2,22.2v43.6
	c0,12.2,10,22.2,22.2,22.2h1.8v17.5c0,8,6.5,14.5,14.5,14.5h83c8,0,14.5-6.5,14.5-14.5V248h1.8c12.2,0,22.2-9.9,22.2-22.2v-43.6
	C330.2,169.9,320.2,160,308,160z M210.2,136h80v24h-80V136z M290.2,264h-80v-48h80V264z M314.2,225.8c0,3.4-2.8,6.2-6.2,6.2h-1.8
	v-17.5c0-8-6.5-14.5-14.5-14.5h-83c-8,0-14.5,6.5-14.5,14.5V232h-1.8c-3.4,0-6.2-2.8-6.2-6.2v-43.6c0-3.4,2.8-6.2,6.2-6.2H308
	c3.4,0,6.2,2.8,6.2,6.2L314.2,225.8L314.2,225.8z"/>
</svg>
