<?xml version="1.0" encoding="utf-8"?>
<!-- Generator: Adobe Illustrator 18.1.1, SVG Export Plug-In . SVG Version: 6.00 Build 0)  -->
<!DOCTYPE svg PUBLIC "-//W3C//DTD SVG 1.1//EN" "http://www.w3.org/Graphics/SVG/1.1/DTD/svg11.dtd">
<svg version="1.1" id="Layer_1" xmlns="http://www.w3.org/2000/svg" xmlns:xlink="http://www.w3.org/1999/xlink" x="0px" y="0px"
	 viewBox="0 0 500 500" enable-background="new 0 0 500 500" xml:space="preserve">
<g>
	<path d="M202,216v-88c0-4.4-3.6-8-8-8s-8,3.6-8,8v88c-5.9,3-10,9-10,16s4.1,13.1,10,16v24c0,4.4,3.6,8,8,8s8-3.6,8-8v-24
		c5.9-3,10-9,10-16S207.9,218.9,202,216z"/>
	<path d="M324,232c0-7-4.1-13.1-10-16v-88c0-4.4-3.6-8-8-8s-8,3.6-8,8v88c-5.9,3-10,9-10,16s4.1,13.1,10,16v24c0,4.4,3.6,8,8,8
		s8-3.6,8-8v-24C319.9,245.1,324,239,324,232z"/>
	<path d="M258,144v-16c0-4.4-3.6-8-8-8s-8,3.6-8,8v16c-5.9,3-10,9-10,16s4.1,13.1,10,16v96c0,4.4,3.6,8,8,8s8-3.6,8-8v-96
		c5.9-3,10-9,10-16S263.9,146.9,258,144z"/>
</g>
</svg>
