<?xml version="1.0" encoding="utf-8"?>
<!-- Generator: Adobe Illustrator 18.1.1, SVG Export Plug-In . SVG Version: 6.00 Build 0)  -->
<!DOCTYPE svg PUBLIC "-//W3C//DTD SVG 1.1//EN" "http://www.w3.org/Graphics/SVG/1.1/DTD/svg11.dtd">
<svg version="1.1" id="Layer_1" xmlns="http://www.w3.org/2000/svg" xmlns:xlink="http://www.w3.org/1999/xlink" x="0px" y="0px"
	 viewBox="0 0 500 500" enable-background="new 0 0 500 500" xml:space="preserve">
<g>
	<path d="M306,200c-4.4,0-8,3.6-8,8v32.1c0,4.3-3.5,7.9-7.9,7.9h-80.2c-4.3,0-7.9-3.5-7.9-7.9v-80.2c0-4.3,3.5-7.9,7.9-7.9H242
		c4.4,0,8-3.6,8-8s-3.6-8-8-8h-32.1c-13.2,0-23.9,10.7-23.9,23.9v80.3c0,13.2,10.7,23.9,23.9,23.9h80.3c13.2,0,23.9-10.7,23.9-23.9
		V208C314,203.6,310.4,200,306,200z"/>
	<path d="M306,136h-32c-4.4,0-8,3.6-8,8s3.6,8,8,8h12.7l-54.3,54.3c-3.1,3.1-3.1,8.2,0,11.3c1.6,1.6,3.6,2.3,5.7,2.3
		s4.1-0.8,5.7-2.3l54.3-54.3V176c0,4.4,3.6,8,8,8s8-3.6,8-8v-32C314,139.6,310.4,136,306,136z"/>
</g>
</svg>
