<?xml version="1.0" encoding="utf-8"?>
<!-- Generator: Adobe Illustrator 18.1.1, SVG Export Plug-In . SVG Version: 6.00 Build 0)  -->
<!DOCTYPE svg PUBLIC "-//W3C//DTD SVG 1.1//EN" "http://www.w3.org/Graphics/SVG/1.1/DTD/svg11.dtd">
<svg version="1.1" id="Layer_1" xmlns="http://www.w3.org/2000/svg" xmlns:xlink="http://www.w3.org/1999/xlink" x="0px" y="0px"
	 viewBox="0 0 500 500" enable-background="new 0 0 500 500" xml:space="preserve">
<path d="M306.6,143.4C291.5,128.3,271.4,120,250,120s-41.5,8.3-56.6,23.4c-31.2,31.2-31.2,81.9,0,113.1
	c15.1,15.1,35.2,23.4,56.6,23.4s41.5-8.3,56.6-23.4S330,221.4,330,200S321.7,158.5,306.6,143.4z M314,200c0,5.7-0.8,11.2-2.2,16.5
	l-22.2-22.2l-2.8-2.8l-25.5-25.5l21.2-21.2c4.6,2.7,8.9,6,12.8,9.8C307.3,166.8,314,182.9,314,200z M227.4,200l22.6-22.6l22.6,22.6
	L250,222.6L227.4,200z M250,136c5.7,0,11.2,0.8,16.5,2.2l-22.2,22.2l-2.8,2.8l-25.5,25.5l-21.1-21.1c2.7-4.6,5.9-8.9,9.8-12.8
	C216.8,142.7,232.9,136,250,136z M188.2,183.5l22.2,22.2l0,0l28.3,28.3l-21.2,21.2c-4.6-2.7-8.9-6-12.8-9.8
	C188,228.5,182.6,204.8,188.2,183.5z M250,264c-5.7,0-11.2-0.8-16.5-2.2l22.2-22.2l28.3-28.3l21.2,21.2c-2.7,4.6-6,8.9-9.8,12.8
	C283.2,257.3,267.1,264,250,264z"/>
</svg>
