<?xml version="1.0" encoding="utf-8"?>
<!-- Generator: Adobe Illustrator 18.1.1, SVG Export Plug-In . SVG Version: 6.00 Build 0)  -->
<!DOCTYPE svg PUBLIC "-//W3C//DTD SVG 1.1//EN" "http://www.w3.org/Graphics/SVG/1.1/DTD/svg11.dtd">
<svg version="1.1" id="Layer_1" xmlns="http://www.w3.org/2000/svg" xmlns:xlink="http://www.w3.org/1999/xlink" x="0px" y="0px"
	 viewBox="0 0 500 500" enable-background="new 0 0 500 500" xml:space="preserve">
<path d="M329.2,180.5c-1.4-4.4-5.2-7.6-9.9-8.3l-41.4-5.3l-16.4-43.4c-0.1-0.2-0.2-0.5-0.3-0.7c-2.1-4.2-6.2-6.8-10.9-6.8
	c-4.7,0-8.8,2.6-10.9,6.8c-0.1,0.2-0.2,0.5-0.3,0.7l-16.4,43.4l-42,5.3c-4.6,0.7-8.4,3.8-9.8,8.3s-0.3,9.2,3.1,12.5
	c0.2,0.2,0.3,0.3,0.5,0.5l31,25.3l-16.8,44.7c-0.2,0.5-0.3,1-0.4,1.5c-0.6,3.5,0.4,7.1,2.7,9.9c2.3,2.8,5.7,4.4,9.3,4.4
	c2,0,3.9-0.5,5.7-1.4c0.1-0.1,0.3-0.1,0.4-0.2l43.9-26.3l43.9,26.3c0.1,0.1,0.3,0.1,0.4,0.2c1.8,0.9,3.7,1.4,5.7,1.4
	c3.6,0,7-1.6,9.3-4.3c2.3-2.7,3.3-6.3,2.7-9.9c-0.1-0.5-0.2-1-0.4-1.5L295,218.8l30.6-25.3c0.2-0.1,0.3-0.3,0.5-0.4
	C329.4,189.8,330.6,185,329.2,180.5z M282.3,208.5c-0.2,0.1-0.3,0.3-0.5,0.4c-2.9,2.8-4.2,6.8-3.5,10.8c0.1,0.5,0.2,1,0.4,1.4
	l13.8,36.9l-36.3-21.8c-0.1-0.1-0.3-0.1-0.4-0.2c-1.7-0.9-3.7-1.4-5.7-1.4s-3.9,0.5-5.7,1.4c-0.1,0.1-0.3,0.1-0.4,0.2L207.8,258
	l13.8-36.9c0.2-0.5,0.3-1,0.4-1.5c0.7-3.9-0.6-8-3.5-10.8c-0.2-0.2-0.3-0.3-0.5-0.5L191.7,187l35.4-4.5c4-0.6,7.4-3.1,9.2-6.6
	c0.1-0.2,0.2-0.5,0.3-0.7l13.6-36l13.6,36c0.1,0.2,0.2,0.5,0.3,0.7c1.8,3.6,5.2,6.1,9.3,6.7l34.9,4.5L282.3,208.5z"/>
</svg>
