<?xml version="1.0" encoding="utf-8"?>
<!-- Generator: Adobe Illustrator 18.1.1, SVG Export Plug-In . SVG Version: 6.00 Build 0)  -->
<!DOCTYPE svg PUBLIC "-//W3C//DTD SVG 1.1//EN" "http://www.w3.org/Graphics/SVG/1.1/DTD/svg11.dtd">
<svg version="1.1" id="Layer_1" xmlns="http://www.w3.org/2000/svg" xmlns:xlink="http://www.w3.org/1999/xlink" x="0px" y="0px"
	 viewBox="0 0 500 500" enable-background="new 0 0 500 500" xml:space="preserve">
<g>
	<path d="M322,156h-40v-13.2c0-10.4-8.4-18.8-18.8-18.8h-27c-10,0-18.2,8.1-18.2,18.1c0,6.3,0,10.7,0,13.9h-40c-4.4,0-8,3.6-8,8
		s3.6,8,8,8h8.7l7.3,80.4c0.2,13,10.9,23.6,24,23.6h64c13.1,0,23.8-10.6,24-23.6l7.3-80.4h8.7c4.4,0,8-3.6,8-8S326.4,156,322,156z
		 M234,142.2c0-1.2,1-2.2,2.2-2.2h27c1.6,0,2.8,1.3,2.8,2.8V156h-32.1C233.9,153.5,233.9,149.3,234,142.2z M290,251.3
		c0,0.2,0,0.5,0,0.7c0,4.4-3.6,8-8,8h-64c-4.4,0-8-3.6-8-8c0-0.2,0-0.5,0-0.7l-7.2-79.3h94.5L290,251.3z"/>
	<path d="M234,244c4.4,0,8-3.6,8-8v-40c0-4.4-3.6-8-8-8s-8,3.6-8,8v40C226,240.4,229.6,244,234,244z"/>
	<path d="M266,244c4.4,0,8-3.6,8-8v-40c0-4.4-3.6-8-8-8s-8,3.6-8,8v40C258,240.4,261.6,244,266,244z"/>
</g>
</svg>
