<?xml version="1.0" encoding="utf-8"?>
<!-- Generator: Adobe Illustrator 18.1.1, SVG Export Plug-In . SVG Version: 6.00 Build 0)  -->
<!DOCTYPE svg PUBLIC "-//W3C//DTD SVG 1.1//EN" "http://www.w3.org/Graphics/SVG/1.1/DTD/svg11.dtd">
<svg version="1.1" id="Layer_1" xmlns="http://www.w3.org/2000/svg" xmlns:xlink="http://www.w3.org/1999/xlink" x="0px" y="0px"
	 viewBox="0 0 500 500" enable-background="new 0 0 500 500" xml:space="preserve">
<g>
	<path d="M245.8,211.8h8.5c19.7,0,35.7-16,35.7-35.8v-20.3c0-19.7-16-35.7-35.7-35.7h-8.5c-19.7,0-35.8,16-35.8,35.8V176
		C210,195.7,226,211.8,245.8,211.8z M226,155.8c0-10.9,8.9-19.8,19.8-19.8h8.5c10.9,0,19.7,8.9,19.7,19.8V176
		c0,10.9-8.9,19.8-19.8,19.8h-8.5c-10.9,0-19.7-8.9-19.7-19.8V155.8z"/>
	<path d="M337.4,243.7c0-0.1,0-0.2,0-0.2c0.2-3.3-1.7-6.4-4.9-7.8c-18.9-7.9-49.7-12.6-82.5-12.6c-34.2,0-64.5,4.7-83.2,12.9
		c-3.2,1.4-4.9,4.6-4.7,7.8c0,0.1,0,0.3,0,0.4V260c0,11,9,20,20,20h136c11,0,20-9,20-20.3L337.4,243.7z M318,264H182
		c-2.2,0-4-1.8-4-4v-11.2c17-6.1,43.3-9.7,72-9.7c27.6,0,54.3,3.6,71.6,9.6L322,260C322,262.2,320.2,264,318,264z"/>
</g>
</svg>
