<?xml version="1.0" encoding="utf-8"?>
<!-- Generator: Adobe Illustrator 18.1.1, SVG Export Plug-In . SVG Version: 6.00 Build 0)  -->
<!DOCTYPE svg PUBLIC "-//W3C//DTD SVG 1.1//EN" "http://www.w3.org/Graphics/SVG/1.1/DTD/svg11.dtd">
<svg version="1.1" id="Layer_1" xmlns="http://www.w3.org/2000/svg" xmlns:xlink="http://www.w3.org/1999/xlink" x="0px" y="0px"
	 viewBox="0 0 500 500" enable-background="new 0 0 500 500" xml:space="preserve">
<path d="M306,120H194c-13.2,0-24,10.8-24,24v112c0,13.2,10.8,24,24,24h112c13.2,0,24-10.8,24-24V144C330,130.8,319.2,120,306,120z
	 M298,168h16v24h-16V168z M282,192h-64v-56h64V192z M202,192h-16v-24h16V192z M186,208h16v24h-16V208z M218,208h64v56h-64V208z
	 M298,208h16v24h-16V208z M314,144v8h-16v-16h8C310.4,136,314,139.6,314,144z M194,136h8v16h-16v-8C186,139.6,189.6,136,194,136z
	 M186,256v-8h16v16h-8C189.6,264,186,260.4,186,256z M306,264h-8v-16h16v8C314,260.4,310.4,264,306,264z"/>
</svg>
