<?xml version="1.0" encoding="utf-8"?>
<!-- Generator: Adobe Illustrator 19.2.1, SVG Export Plug-In . SVG Version: 6.00 Build 0)  -->
<!DOCTYPE svg PUBLIC "-//W3C//DTD SVG 1.1//EN" "http://www.w3.org/Graphics/SVG/1.1/DTD/svg11.dtd">
<svg version="1.1" id="Layer_1" xmlns="http://www.w3.org/2000/svg" xmlns:xlink="http://www.w3.org/1999/xlink" x="0px" y="0px"
	 width="3168px" height="4660px" viewBox="0 0 3168 4660" enable-background="new 0 0 3168 4660" xml:space="preserve">
<path d="M392.011,351.1l-56.5,56.5c0,0,0,0,0,0.1c-0.1,0.1-0.3,0.2-0.5,0.4c-0.2,0.2-0.5,0.4-0.7,0.6c-0.2,0.1-0.4,0.2-0.6,0.3
	c-0.3,0.1-0.5,0.3-0.8,0.4c-0.3,0.1-0.5,0.2-0.8,0.2c-0.2,0.1-0.5,0.2-0.7,0.2c-0.5,0.1-1,0.2-1.5,0.2l0,0l0,0
	c-0.5,0-1.1-0.1-1.6-0.2c-0.2,0-0.4-0.1-0.7-0.2c-0.3-0.1-0.6-0.1-0.8-0.3c-0.3-0.1-0.5-0.3-0.7-0.4c-0.2-0.1-0.4-0.2-0.6-0.3
	c-0.3-0.2-0.5-0.4-0.7-0.6c-0.2-0.1-0.3-0.2-0.5-0.4c0,0,0,0,0-0.1l-56.5-56.5c-3.1-3.1-3.1-8.2,0-11.3c1.6-1.6,3.6-2.3,5.7-2.3
	c2.1,0,4.1,0.8,5.7,2.3l42.9,42.9V258c0-4.4,3.6-8,8-8s8,3.6,8,8v124.7l42.9-42.9c1.6-1.6,3.6-2.3,5.7-2.3s4.1,0.8,5.7,2.3
	C395.211,342.9,395.211,348,392.011,351.1z"/>
<path d="M808.875,267.944l-56.5,56.5c0,0,0,0-0.1,0c-0.1,0.1-0.2,0.3-0.4,0.5c-0.2,0.2-0.4,0.5-0.6,0.7c-0.1,0.2-0.2,0.4-0.3,0.6
	c-0.1,0.3-0.3,0.5-0.4,0.8c-0.1,0.3-0.2,0.5-0.2,0.8c-0.1,0.2-0.2,0.5-0.2,0.7c-0.1,0.5-0.2,1-0.2,1.5l0,0l0,0
	c0,0.5,0.1,1.1,0.2,1.6c0,0.2,0.1,0.4,0.2,0.7c0.1,0.3,0.1,0.6,0.3,0.8c0.1,0.3,0.3,0.5,0.4,0.7c0.1,0.2,0.2,0.4,0.3,0.6
	c0.2,0.3,0.4,0.5,0.6,0.7c0.1,0.2,0.2,0.3,0.4,0.5c0,0,0,0,0.1,0l56.5,56.5c3.1,3.1,8.2,3.1,11.3,0c1.6-1.6,2.3-3.6,2.3-5.7
	s-0.8-4.1-2.3-5.7l-43-42.6h124.7c4.4,0,8-3.6,8-8s-3.6-8-8-8h-124.7l42.9-42.9c1.6-1.6,2.3-3.6,2.3-5.7c0-2.1-0.8-4.1-2.3-5.7
	C817.075,264.744,811.975,264.744,808.875,267.944z"/>
<path d="M1351.075,267.964l56.5,56.5c0,0,0,0,0.1,0c0.1,0.1,0.2,0.3,0.4,0.5c0.2,0.2,0.4,0.5,0.6,0.7c0.1,0.2,0.2,0.4,0.3,0.6
	c0.1,0.3,0.3,0.5,0.4,0.8c0.1,0.3,0.2,0.5,0.2,0.8c0.1,0.2,0.2,0.5,0.2,0.7c0.1,0.5,0.2,1,0.2,1.5l0,0l0,0c0,0.5-0.1,1.1-0.2,1.6
	c0,0.2-0.1,0.4-0.2,0.7c-0.1,0.3-0.1,0.6-0.3,0.8c-0.1,0.3-0.3,0.5-0.4,0.7c-0.1,0.2-0.2,0.4-0.3,0.6c-0.2,0.3-0.4,0.5-0.6,0.7
	c-0.1,0.2-0.2,0.3-0.4,0.5c0,0,0,0-0.1,0l-56.5,56.5c-3.1,3.1-8.2,3.1-11.3,0c-1.6-1.6-2.3-3.6-2.3-5.7s0.8-4.1,2.3-5.7l42.9-42.9
	h-124.6c-4.4,0-8-3.6-8-8s3.6-8,8-8h124.7l-42.9-42.9c-1.6-1.6-2.3-3.6-2.3-5.7c0-2.1,0.8-4.1,2.3-5.7
	C1342.875,264.764,1347.975,264.764,1351.075,267.964z"/>
<path d="M1892.011,308.9l-56.5-56.5c0,0,0,0,0-0.1c-0.1-0.1-0.3-0.2-0.5-0.4c-0.2-0.2-0.5-0.4-0.7-0.6c-0.2-0.1-0.4-0.2-0.6-0.3
	c-0.3-0.1-0.5-0.3-0.8-0.4c-0.3-0.1-0.5-0.2-0.8-0.2c-0.2-0.1-0.5-0.2-0.7-0.2c-0.5-0.1-1-0.2-1.5-0.2l0,0l0,0
	c-0.5,0-1.1,0.1-1.6,0.2c-0.2,0-0.4,0.1-0.7,0.2c-0.3,0.1-0.6,0.1-0.8,0.3c-0.3,0.1-0.5,0.3-0.7,0.4c-0.2,0.1-0.4,0.2-0.6,0.3
	c-0.3,0.2-0.5,0.4-0.7,0.6c-0.2,0.1-0.3,0.2-0.5,0.4c0,0,0,0,0,0.1l-56.5,56.5c-3.1,3.1-3.1,8.2,0,11.3c1.6,1.6,3.6,2.3,5.7,2.3
	s4.1-0.8,5.7-2.3l42.9-42.9V402c0,4.4,3.6,8,8,8c4.4,0,8-3.6,8-8V277.3l42.9,42.9c1.6,1.6,3.6,2.3,5.7,2.3c2.1,0,4.1-0.8,5.7-2.3
	C1895.211,317.1,1895.211,312,1892.011,308.9z"/>
<g>
	<path d="M2401.975,258h-144c-4.4,0-8,3.6-8,8v32c0,4.4,3.6,8,8,8h0.6l5.4,72.3c0.2,13.1,10.9,23.7,24,23.7h84
		c13.1,0,23.8-10.6,24-23.7l5.4-72.3h0.6c4.4,0,8-3.6,8-8v-32C2409.975,261.6,2406.375,258,2401.975,258z M2265.975,274h128v16h-128
		V274z M2379.975,377.4c0,0.2,0,0.4,0,0.6c0,4.4-3.6,8-8,8h-84c-4.4,0-8-3.6-8-8c0-0.2,0-0.4,0-0.6l-5.4-71.4h110.8L2379.975,377.4z
		"/>
	<path d="M2297.975,366c4.4,0,8-3.6,8-8v-28c0-4.4-3.6-8-8-8c-4.4,0-8,3.6-8,8v28C2289.975,362.4,2293.575,366,2297.975,366z"/>
	<path d="M2329.975,366c4.4,0,8-3.6,8-8v-28c0-4.4-3.6-8-8-8c-4.4,0-8,3.6-8,8v28C2321.975,362.4,2325.575,366,2329.975,366z"/>
	<path d="M2361.975,366c4.4,0,8-3.6,8-8v-28c0-4.4-3.6-8-8-8c-4.4,0-8,3.6-8,8v28C2353.975,362.4,2357.575,366,2361.975,366z"/>
</g>
<path d="M2885.975,254c-0.4,0-0.8,0-1.1,0.1l-54.9,7.8l-54.9-7.8c-0.4-0.1-0.8-0.1-1.1-0.1c-13.2,0-24,10.8-24,24v96
	c0,13,10.4,23.7,23.4,24l55.5,7.9c0.4,0.1,0.7,0.1,1.1,0.1c0.4,0,0.8,0,1.1-0.1l55.5-7.9c12.9-0.3,23.4-11,23.4-24v-96
	C2909.975,264.8,2899.175,254,2885.975,254z M2773.975,382c-4.4,0-8-3.6-8-8v-96c0-4.3,3.3-7.7,7.5-8l48.5,6.9v111.8l-46.9-6.7
	C2774.775,382,2774.375,382,2773.975,382z M2893.975,374c0,4.4-3.6,8-8,8c-0.4,0-0.8,0-1.1,0.1l-46.9,6.7V276.9l48.5-6.9
	c4.2,0.2,7.5,3.7,7.5,8V374z"/>
<g>
	<path d="M385.975,762h-16v-4c0-4.4-3.6-8-8-8s-8,3.6-8,8v4h-48v-4c0-4.4-3.6-8-8-8s-8,3.6-8,8v4h-16c-13.2,0-24,10.8-24,24v100
		c0,13.2,10.8,24,24,24h112c13.2,0,24-10.8,24-24V786C409.975,772.8,399.175,762,385.975,762z M273.975,778h16v4c0,4.4,3.6,8,8,8
		s8-3.6,8-8v-4h48v4c0,4.4,3.6,8,8,8s8-3.6,8-8v-4h16c4.4,0,8,3.6,8,8v12h-128v-12C265.975,781.6,269.575,778,273.975,778z
		 M385.975,894h-112c-4.4,0-8-3.6-8-8v-72h128v72C393.975,890.4,390.375,894,385.975,894z"/>
	<path d="M369.975,830h-80c-4.4,0-8,3.6-8,8c0,4.4,3.6,8,8,8h80c4.4,0,8-3.6,8-8C377.975,833.6,374.375,830,369.975,830z"/>
	<path d="M337.975,862h-48c-4.4,0-8,3.6-8,8c0,4.4,3.6,8,8,8h48c4.4,0,8-3.6,8-8C345.975,865.6,342.375,862,337.975,862z"/>
</g>
<g>
	<path d="M885.975,750h-112c-13.2,0-24,10.8-24,24v112c0,13.2,10.8,24,24,24h112c13.2,0,24-10.8,24-24V774
		C909.975,760.8,899.175,750,885.975,750z M893.975,886c0,4.4-3.6,8-8,8h-112c-4.4,0-8-3.6-8-8v-48h33.1c3.6,13.8,16.1,24,30.9,24
		s27.4-10.2,30.9-24h33.1V886z M813.975,830c0-8.8,7.2-16,16-16s16,7.2,16,16s-7.2,16-16,16S813.975,838.8,813.975,830z
		 M893.975,822h-33.1c-3.6-13.8-16.1-24-30.9-24s-27.4,10.2-30.9,24h-33.1v-48c0-4.4,3.6-8,8-8h112c4.4,0,8,3.6,8,8V822z"/>
	<path d="M864.375,784.4c-1.5,1.5-2.4,3.5-2.4,5.6c0,2.1,0.8,4.2,2.4,5.6c1.5,1.5,3.5,2.4,5.6,2.4c2.1,0,4.2-0.8,5.6-2.4
		c1.5-1.5,2.4-3.5,2.4-5.6c0-2.1-0.8-4.2-2.4-5.6C872.675,781.4,867.275,781.4,864.375,784.4z"/>
</g>
<path d="M1385.975,782h-24v-13.2c0-10.4-8.4-18.8-18.8-18.8h-27c-10,0-18.2,8.1-18.2,18.1c0,6.3,0,10.7,0,13.9h-24
	c-13.2,0-24,10.8-24,24v80c0,13.2,10.8,24,24,24h112c13.2,0,24-10.8,24-24v-80C1409.975,792.8,1399.175,782,1385.975,782z
	 M1313.975,768.2c0-1.2,1-2.2,2.2-2.2h27c1.6,0,2.8,1.3,2.8,2.8V782h-32.1C1313.875,779.5,1313.875,775.3,1313.975,768.2z
	 M1273.975,798h112c4.4,0,8,3.6,8,8v32h-24v-8c0-4.4-3.6-8-8-8c-4.4,0-8,3.6-8,8v8h-24h-24v-8c0-4.4-3.6-8-8-8c-4.4,0-8,3.6-8,8v8
	h-24v-32C1265.975,801.6,1269.575,798,1273.975,798z M1385.975,894h-112c-4.4,0-8-3.6-8-8v-32h24v8c0,4.4,3.6,8,8,8c4.4,0,8-3.6,8-8
	v-8h24h24v8c0,4.4,3.6,8,8,8c4.4,0,8-3.6,8-8v-8h24v32C1393.975,890.4,1390.375,894,1385.975,894z"/>
<g>
	<path d="M1773.975,818h40c4.4,0,8-3.6,8-8v-40c0-4.4-3.6-8-8-8h-40c-4.4,0-8,3.6-8,8v40C1765.975,814.4,1769.575,818,1773.975,818z
		 M1781.975,778h24v24h-24V778z"/>
	<path d="M1885.975,762h-40c-4.4,0-8,3.6-8,8v40c0,4.4,3.6,8,8,8h40c4.4,0,8-3.6,8-8v-40C1893.975,765.6,1890.375,762,1885.975,762z
		 M1877.975,802h-24v-24h24V802z"/>
	<path d="M1885.975,842h-112c-4.4,0-8,3.6-8,8c0,4.4,3.6,8,8,8h112c4.4,0,8-3.6,8-8C1893.975,845.6,1890.375,842,1885.975,842z"/>
	<path d="M1885.975,882h-112c-4.4,0-8,3.6-8,8c0,4.4,3.6,8,8,8h112c4.4,0,8-3.6,8-8C1893.975,885.6,1890.375,882,1885.975,882z"/>
</g>
<g>
	<path d="M2402.599,829.978c-4.4-0.5-8.3,2.7-8.8,7.1c-1.6,14.6-8,27.8-18.4,38.1c-12,12.1-28.1,18.8-45.2,18.8
		c-17.1,0-33.2-6.7-45.3-18.7c-25-25-25-65.6,0-90.5c19.5-19.4,49.1-24.3,73.7-12.1c4,2,8.8,0.3,10.7-3.6c2-4,0.3-8.8-3.6-10.7
		c-30.8-15.3-67.8-9.2-92.1,15.1c-31.2,31.2-31.2,81.9,0,113.1c15.1,15.1,35.2,23.4,56.6,23.4c21.4,0,41.5-8.3,56.6-23.4
		c12.8-12.8,20.9-29.7,22.9-47.7C2410.199,834.478,2406.999,830.478,2402.599,829.978z"/>
	<path d="M2307.899,820.278c-3.1-3.1-8.2-3.1-11.3,0c-3.1,3.1-3.1,8.2,0,11.3l28,28c1.6,1.6,3.6,2.3,5.7,2.3c2.1,0,4.1-0.8,5.7-2.3
		l64-64c3.1-3.1,3.1-8.2,0-11.3c-3.1-3.1-8.2-3.1-11.3,0l-58.5,58.4L2307.899,820.278z"/>
</g>
<g>
	<path d="M2885.925,829.95c-4.4,0-8,3.6-8,8v32.1c0,4.3-3.5,7.9-7.9,7.9h-80.2c-4.3,0-7.9-3.5-7.9-7.9v-80.2c0-4.3,3.5-7.9,7.9-7.9
		h64.1c4.4,0,8-3.6,8-8s-3.6-8-8-8h-64.1c-13.2,0-23.9,10.7-23.9,23.9v80.3c0,13.2,10.7,23.9,23.9,23.9h80.3
		c13.2,0,23.9-10.7,23.9-23.9v-32.2C2893.925,833.55,2890.325,829.95,2885.925,829.95z"/>
	<path d="M2807.625,812.25c-3.1-3.1-8.2-3.1-11.3,0c-3.1,3.1-3.1,8.2,0,11.3l28,28c1.6,1.6,3.6,2.3,5.7,2.3s4.1-0.8,5.7-2.3l52-52
		c3.1-3.1,3.1-8.2,0-11.3c-3.1-3.1-8.2-3.1-11.3,0l-46.5,46.4L2807.625,812.25z"/>
</g>
<g>
	<path d="M249.975,1330c0,21.4,8.3,41.5,23.4,56.6c15.1,15.1,35.2,23.4,56.6,23.4c21.4,0,41.5-8.3,56.6-23.4
		c31.2-31.2,31.2-81.9,0-113.1c-15.1-15.2-35.2-23.5-56.6-23.5s-41.5,8.3-56.6,23.4C258.375,1288.5,249.975,1308.6,249.975,1330z
		 M265.975,1330c0-17.1,6.7-33.2,18.7-45.3c12.1-12.1,28.2-18.7,45.3-18.7s33.2,6.7,45.3,18.7c25,25,25,65.6,0,90.5
		c-12.1,12.1-28.2,18.8-45.3,18.8s-33.2-6.7-45.3-18.7S265.975,1347.1,265.975,1330z"/>
	<path d="M312.375,1292.3c3.1-3.1,8.2-3.1,11.3,0l32,32c0.7,0.7,1.2,1.5,1.6,2.4c0,0.1,0.1,0.1,0.1,0.2c0.1,0.3,0.2,0.7,0.3,1.1
		c0,0.1,0.1,0.3,0.1,0.4c0.2,1,0.2,2.1,0,3.1c0,0.1-0.1,0.3-0.1,0.4c-0.1,0.4-0.2,0.7-0.3,1.1c0,0.1-0.1,0.1-0.1,0.2
		c-0.4,0.9-0.9,1.7-1.6,2.4l-32,32c-1.6,1.6-3.6,2.3-5.7,2.3c-2.1,0-4.1-0.8-5.7-2.3c-3.1-3.1-3.1-8.2,0-11.3l26.3-26.3l-26.3-26.3
		C309.275,1300.5,309.275,1295.5,312.375,1292.3z"/>
</g>
<path d="M829.937,1847l-50.9-50.9c-3.1-3.1-8.2-3.1-11.3,0c-3.1,3.1-3.1,8.2,0,11.3l56.6,56.6c3.1,3.1,8.2,3.1,11.3,0l56.6-56.6
	c1.6-1.6,2.3-3.6,2.3-5.7c0-2.1-0.8-4.1-2.3-5.7c-3.1-3.1-8.2-3.1-11.3,0L829.937,1847z"/>
<g>
	<path d="M1273.525,1273.5c-15.2,15.1-23.5,35.2-23.5,56.5s8.3,41.5,23.4,56.6c31.2,31.2,81.9,31.2,113.1,0
		c15.1-15.1,23.4-35.2,23.4-56.6s-8.3-41.5-23.4-56.6c-15-15.1-35.1-23.4-56.5-23.4S1288.625,1258.3,1273.525,1273.5z
		 M1375.325,1284.8c12.1,12.1,18.7,28.2,18.7,45.3s-6.7,33.2-18.7,45.3c-25,25-65.6,25-90.5,0c-12.1-12.2-18.8-28.3-18.8-45.4
		s6.7-33.2,18.7-45.3c12-12.1,28.2-18.7,45.3-18.7S1363.225,1272.7,1375.325,1284.8z"/>
	<path d="M1292.425,1312.4c-3.1,3.1-3.1,8.2,0,11.3l32,32c0.7,0.7,1.5,1.2,2.4,1.6c0.1,0,0.1,0.1,0.2,0.1c0.3,0.1,0.7,0.2,1.1,0.3
		c0.1,0,0.3,0.1,0.4,0.1c1,0.2,2.1,0.2,3.1,0c0.1,0,0.3-0.1,0.4-0.1c0.4-0.1,0.7-0.2,1.1-0.3c0.1,0,0.1-0.1,0.2-0.1
		c0.9-0.4,1.7-0.9,2.4-1.6l32-32c1.6-1.6,2.3-3.6,2.3-5.7s-0.8-4.1-2.3-5.7c-3.1-3.1-8.2-3.1-11.3,0l-26.4,26.4l-26.3-26.3
		C1300.625,1309.2,1295.525,1309.2,1292.425,1312.4z"/>
</g>
<path d="M2312.975,1329.963l50.9-50.9c3.1-3.1,3.1-8.2,0-11.3c-3.1-3.1-8.2-3.1-11.3,0l-56.6,56.6c-3.1,3.1-3.1,8.2,0,11.3
	l56.6,56.6c1.6,1.6,3.6,2.3,5.7,2.3s4.1-0.8,5.7-2.3c3.1-3.1,3.1-8.2,0-11.3L2312.975,1329.963z"/>
<g>
	<path d="M1886.575,1273.45c-15.1-15.1-35.2-23.4-56.6-23.4c-21.4,0-41.5,8.3-56.6,23.4c-31.2,31.2-31.2,81.9,0,113.1
		c15.1,15.1,35.2,23.4,56.6,23.4c21.4,0,41.5-8.3,56.6-23.4c15.1-15.1,23.4-35.1,23.4-56.5
		C1909.975,1308.65,1901.675,1288.55,1886.575,1273.45z M1875.275,1375.35c-12.1,12-28.2,18.7-45.3,18.7c-17.1,0-33.2-6.7-45.3-18.7
		c-25-25-25-65.6,0-90.5c12.1-12.1,28.2-18.7,45.3-18.7c17.1,0,33.2,6.7,45.3,18.7c12.1,12.1,18.7,28.2,18.7,45.3
		S1887.275,1363.25,1875.275,1375.35z"/>
	<path d="M1847.675,1292.35c-3.1-3.1-8.2-3.1-11.3,0l-32,32c-0.7,0.7-1.2,1.5-1.6,2.4c0,0.1-0.1,0.1-0.1,0.2
		c-0.1,0.3-0.2,0.7-0.3,1.1c0,0.1-0.1,0.3-0.1,0.4c-0.2,1-0.2,2.1,0,3.1c0,0.1,0.1,0.3,0.1,0.4c0.1,0.4,0.2,0.7,0.3,1.1
		c0,0.1,0.1,0.1,0.1,0.2c0.4,0.9,0.9,1.7,1.6,2.4l32,32c1.6,1.6,3.6,2.3,5.7,2.3s4.1-0.8,5.7-2.3c3.1-3.1,3.1-8.2,0-11.3l-26.5-26.3
		l26.3-26.3C1850.775,1300.55,1850.775,1295.55,1847.675,1292.35z"/>
</g>
<path d="M2846.975,1329.963l-50.9-50.9c-3.1-3.1-3.1-8.2,0-11.3c3.1-3.1,8.2-3.1,11.3,0l56.6,56.6c3.1,3.1,3.1,8.2,0,11.3
	l-56.6,56.6c-1.6,1.6-3.6,2.3-5.7,2.3c-2.1,0-4.1-0.8-5.7-2.3c-3.1-3.1-3.1-8.2,0-11.3L2846.975,1329.963z"/>
<path d="M329.937,1813l-50.9,50.9c-3.1,3.1-8.2,3.1-11.3,0s-3.1-8.2,0-11.3l56.6-56.6c3.1-3.1,8.2-3.1,11.3,0l56.6,56.6
	c1.6,1.6,2.3,3.6,2.3,5.7s-0.8,4.1-2.3,5.7c-3.1,3.1-8.2,3.1-11.3,0L329.937,1813z"/>
<g>
	<path d="M829.975,1410c21.4,0,41.5-8.3,56.6-23.4c15.1-15.1,23.4-35.2,23.4-56.6s-8.3-41.5-23.4-56.6c-31.2-31.2-81.9-31.2-113.1,0
		c-15.2,15.1-23.5,35.2-23.5,56.6s8.3,41.5,23.4,56.6C788.575,1401.7,808.575,1410,829.975,1410z M829.975,1394
		c-17.1,0-33.2-6.7-45.3-18.7c-12-12.2-18.7-28.2-18.7-45.3s6.7-33.2,18.7-45.3c25-25,65.6-25,90.5,0c12.1,12.1,18.7,28.2,18.7,45.3
		s-6.7,33.2-18.7,45.3C863.175,1387.3,847.075,1394,829.975,1394z"/>
	<path d="M792.375,1347.6c-3.1-3.1-3.1-8.2,0-11.3l32-32c0.7-0.7,1.5-1.2,2.4-1.6c0.1,0,0.1-0.1,0.2-0.1c0.3-0.1,0.7-0.2,1.1-0.3
		c0.1,0,0.3-0.1,0.4-0.1c1-0.2,2.1-0.2,3.1,0c0.1,0,0.3,0.1,0.4,0.1c0.4,0.1,0.7,0.2,1.1,0.3c0.1,0,0.1,0.1,0.2,0.1
		c0.9,0.4,1.7,0.9,2.4,1.6l32,32c1.6,1.6,2.3,3.6,2.3,5.7s-0.8,4.1-2.3,5.7c-3.1,3.1-8.2,3.1-11.3,0l-26.4-26.4l-26.3,26.3
		C800.575,1350.8,795.475,1350.8,792.375,1347.6z"/>
</g>
<g>
	<path d="M1386.575,1773.45c-15.1-15.1-35.2-23.4-56.6-23.4c-21.4,0-41.5,8.3-56.6,23.4c-31.2,31.2-31.2,81.9,0,113.1
		c15.1,15.1,35.2,23.4,56.6,23.4c21.4,0,41.5-8.3,56.6-23.4c15.1-15.1,23.4-35.1,23.4-56.5
		C1409.975,1808.65,1401.675,1788.55,1386.575,1773.45z M1375.275,1875.35c-12.1,12-28.2,18.7-45.3,18.7c-17.1,0-33.2-6.7-45.3-18.7
		c-25-25-25-65.6,0-90.5c12.1-12.1,28.2-18.7,45.3-18.7c17.1,0,33.2,6.7,45.3,18.7c12.1,12.1,18.7,28.2,18.7,45.3
		S1387.275,1863.25,1375.275,1875.35z"/>
	<path d="M1337.875,1826.65c0.1-3.5,0.1-8.3,0.1-15.2c0-19.2,0-21.1-0.1-21.7c-0.2-4.4-3.9-7.9-8.3-7.7c-4.4,0.2-7.8,3.9-7.7,8.3
		c0.1,3.3,0,36.8,0,39.6v3.3l18.4,18.4c1.6,1.6,3.6,2.3,5.7,2.3c2.1,0,4.1-0.8,5.7-2.3c3.1-3.1,3.1-8.2,0-11.3L1337.875,1826.65z"/>
</g>
<path d="M1863.875,1784.744l-33.9,34l-33.9-33.9c-3.1-3.1-8.2-3.1-11.3,0c-3.1,3.1-3.1,8.2,0,11.3l33.9,33.9l-33.9,33.9
	c-3.1,3.1-3.1,8.2,0,11.3c3.1,3.1,8.2,3.1,11.3,0l33.9-33.9l33.9,33.9c3.1,3.1,8.2,3.1,11.3,0c3.1-3.1,3.1-8.2,0-11.3l-33.9-33.9
	l33.9-33.9c3.1-3.1,3.1-8.2,0-11.3C1872.075,1781.644,1867.075,1781.644,1863.875,1784.744z"/>
<g>
	<path d="M2406.075,1815.1l-15.3-9.2l3.1-18.6c0.4-2.5-0.4-5.1-2.2-7l-12-12c-1.8-1.8-4.4-2.7-7-2.2l-17.7,2.9l-5.6-14
		c-1.2-3-4.2-5-7.4-5h-24c-3.3,0-6.2,2-7.4,5l-5.6,14l-17.6-2.9c-2.5-0.4-5.1,0.4-7,2.2l-12,12c-1.8,1.8-2.7,4.4-2.2,7l2.8,17.7
		l-14,5.6c-3,1.2-5,4.2-5,7.4v20c0,2.8,1.5,5.4,3.9,6.9l15.3,9.2l-3.1,18.6c-0.4,2.6,0.4,5.1,2.2,7l12,12c1.5,1.5,3.6,2.3,5.7,2.3
		c0.5,0,1-0.1,1.6-0.2l14.5-2.9l9.1,15.2c1.4,2.4,4,3.9,6.9,3.9h24c3.3,0,6.2-2,7.4-5l5.6-14l17.6,2.9c0.4,0.1,0.9,0.1,1.3,0.1
		c2.1,0,4.1-0.8,5.7-2.3l12-12c1.8-1.8,2.7-4.4,2.2-7l-3.1-18.6l15.3-9.2c2.4-1.4,3.9-4.1,3.9-6.9v-16
		C2409.975,1819.2,2408.475,1816.6,2406.075,1815.1z M2393.975,1833.5l-16.1,9.7c0,0,0,0-0.1,0.1c-0.3,0.2-0.5,0.4-0.8,0.6
		c-0.2,0.1-0.3,0.2-0.5,0.4c-0.2,0.2-0.3,0.4-0.5,0.5c-0.2,0.2-0.4,0.4-0.6,0.6c-0.1,0.1-0.2,0.3-0.3,0.5c-0.2,0.3-0.4,0.5-0.5,0.8
		c-0.1,0.2-0.2,0.4-0.2,0.7c-0.1,0.3-0.2,0.5-0.3,0.8c-0.1,0.2-0.1,0.5-0.1,0.7c0,0.3-0.1,0.6-0.1,0.9c0,0.2,0,0.4,0,0.6
		c0,0.3,0,0.7,0.1,1v0.1l3.3,19.9l-6.2,6.2l-19.9-3.3c-0.2,0-0.4,0-0.5,0c-0.3,0-0.7-0.1-1-0.1c-0.2,0-0.4,0.1-0.7,0.1
		s-0.6,0.1-0.9,0.1c-0.2,0.1-0.5,0.1-0.7,0.2c-0.3,0.1-0.5,0.2-0.8,0.3c-0.2,0.1-0.4,0.2-0.6,0.3c-0.2,0.1-0.5,0.3-0.7,0.4
		c-0.2,0.1-0.3,0.3-0.5,0.4c-0.2,0.2-0.4,0.4-0.6,0.6c-0.2,0.2-0.3,0.4-0.5,0.6c-0.2,0.2-0.3,0.4-0.5,0.6c-0.2,0.2-0.3,0.5-0.4,0.8
		c-0.1,0.2-0.2,0.4-0.3,0.6l-6,15h-14.1l-9.7-16.1c0-0.1-0.1-0.1-0.1-0.2s-0.1-0.1-0.1-0.2c-0.1-0.2-0.3-0.3-0.4-0.5
		c-0.1-0.2-0.3-0.4-0.4-0.5l-0.1-0.1c0,0-0.1-0.1-0.2-0.1c-0.1-0.1-0.2-0.2-0.3-0.2c-0.2-0.2-0.4-0.4-0.6-0.5
		c-0.2-0.1-0.4-0.2-0.6-0.3c-0.3-0.1-0.5-0.3-0.8-0.4c-0.2-0.1-0.4-0.1-0.6-0.2c-0.3-0.1-0.6-0.2-0.9-0.3c-0.2,0-0.4-0.1-0.6-0.1
		c-0.3,0-0.6-0.1-0.9-0.1c-0.2,0-0.4,0-0.6,0c-0.3,0-0.7,0-1,0.1c-0.1,0-0.1,0-0.2,0l-15.8,3.2l-6.1-6.1l3.3-19.9v-0.1
		c0.1-0.3,0.1-0.7,0.1-1c0-0.2,0-0.4,0-0.6c0-0.3-0.1-0.5-0.1-0.8c0-0.3-0.1-0.5-0.1-0.8c-0.1-0.2-0.1-0.4-0.2-0.6
		c-0.1-0.3-0.2-0.6-0.3-0.8c-0.1-0.2-0.3-0.4-0.4-0.7c-0.1-0.2-0.2-0.4-0.4-0.7c-0.1-0.2-0.3-0.4-0.5-0.5c-0.2-0.2-0.4-0.4-0.6-0.6
		c-0.1-0.1-0.3-0.2-0.5-0.4c-0.3-0.2-0.5-0.4-0.8-0.6c0,0,0,0-0.1-0.1l-16.1-9.7v-10.1l14.9-5.9l0,0h0.1c0.2-0.1,0.3-0.2,0.5-0.2
		c0.3-0.1,0.6-0.3,0.9-0.5c0.2-0.1,0.4-0.3,0.6-0.5c0.2-0.2,0.4-0.3,0.6-0.5c0.2-0.2,0.4-0.4,0.5-0.6c0.2-0.2,0.3-0.4,0.5-0.6
		c0.2-0.2,0.3-0.5,0.4-0.7c0.1-0.2,0.3-0.4,0.4-0.7c0.1-0.2,0.2-0.5,0.2-0.7c0.1-0.2,0.2-0.5,0.2-0.7c0.1-0.3,0.1-0.6,0.1-0.8
		c0-0.2,0.1-0.5,0.1-0.7c0-0.4,0-0.7-0.1-1.1c0-0.2,0-0.3,0-0.5v-0.1l0,0l-3.3-19.8l6.2-6.2l19.8,3.3l0,0h0.1c0.2,0,0.3,0,0.5,0
		c0.3,0,0.7,0.1,1,0.1c0.3,0,0.6-0.1,0.9-0.1c0.2,0,0.4,0,0.6-0.1c0.3-0.1,0.6-0.2,0.9-0.3c0.2-0.1,0.4-0.1,0.5-0.2
		c0.3-0.1,0.5-0.3,0.8-0.4c0.2-0.1,0.4-0.2,0.5-0.3c0.2-0.2,0.4-0.4,0.7-0.5c0.2-0.2,0.4-0.3,0.5-0.5c0.2-0.2,0.4-0.5,0.6-0.7
		c0.1-0.2,0.3-0.3,0.4-0.5c0.2-0.3,0.3-0.6,0.5-0.9c0.1-0.2,0.2-0.3,0.2-0.4v-0.1l0,0l6-14.9h13.2l6,15c0,0,0,0.1,0.1,0.1
		c0.3,0.6,0.6,1.2,1.1,1.8c0.1,0.1,0.2,0.2,0.3,0.3c0.5,0.5,1,1,1.6,1.4c0.1,0.1,0.2,0.1,0.2,0.1c0.5,0.3,1.1,0.6,1.7,0.8
		c0.1,0,0.2,0.1,0.4,0.1c0.7,0.2,1.3,0.3,2.1,0.3h0.1c0.3,0,0.6-0.1,0.9-0.1c0.1,0,0.3,0,0.4,0h0.2l0,0l19.8-3.3l6.2,6.2l-3.3,19.9
		v0.1c-0.1,0.3-0.1,0.7-0.1,1c0,0.2,0,0.4,0,0.6c0,0.3,0.1,0.6,0.1,0.9c0,0.2,0,0.5,0.1,0.7c0.1,0.3,0.2,0.5,0.3,0.8
		c0.1,0.2,0.1,0.5,0.2,0.7c0.1,0.3,0.3,0.6,0.5,0.8c0.1,0.2,0.2,0.3,0.3,0.5c0.2,0.2,0.4,0.4,0.6,0.6c0.2,0.2,0.3,0.4,0.5,0.5
		s0.3,0.3,0.5,0.4c0.3,0.2,0.5,0.4,0.8,0.6c0,0,0,0,0.1,0.1l16.1,9.7V1833.5L2393.975,1833.5z"/>
	<path d="M2329.975,1797.1c-17.6,0-32,14.4-32,32c0,17.6,14.4,32,32,32c17.6,0,32-14.4,32-32
		C2361.975,1811.5,2347.575,1797.1,2329.975,1797.1z M2329.975,1845.1c-8.8,0-16-7.2-16-16c0-8.8,7.2-16,16-16s16,7.2,16,16
		C2345.975,1837.9,2338.775,1845.1,2329.975,1845.1z"/>
</g>
<g>
	<path d="M2829.975,1750c-21.4,0-41.5,8.3-56.6,23.4c-15.1,15.2-23.4,35.2-23.4,56.6c0,44.1,35.9,80,80,80
		c21.4,0,41.5-8.3,56.6-23.4c15.1-15.1,23.4-35.2,23.4-56.6s-8.3-41.5-23.4-56.6C2871.475,1758.3,2851.375,1750,2829.975,1750z
		 M2893.975,1830c0,17.1-6.7,33.2-18.7,45.3c-12.1,12.1-28.2,18.7-45.3,18.7c-35.3,0-64-28.7-64-64c0-17.1,6.7-33.2,18.7-45.3
		c12-12.1,28.2-18.7,45.3-18.7c17.1,0,33.2,6.7,45.3,18.7C2887.275,1796.8,2893.975,1812.9,2893.975,1830z"/>
	<path d="M2846.975,1801.7l-17,17l-17-17c-3.1-3.1-8.2-3.1-11.3,0c-3.1,3.1-3.1,8.2,0,11.3l17,17l-17,17c-3.1,3.1-3.1,8.2,0,11.3
		c3.1,3.1,8.2,3.1,11.3,0l17-17l17,17c3.1,3.1,8.2,3.1,11.3,0c3.1-3.1,3.1-8.2,0-11.3l-17-17l17-17c3.1-3.1,3.1-8.2,0-11.3
		C2855.175,1798.6,2850.075,1798.6,2846.975,1801.7z"/>
</g>
<g>
	<path d="M324.225,2375.7c0.4,0.4,0.8,0.7,1.2,1c0.2,0.1,0.4,0.2,0.6,0.3c0.3,0.1,0.5,0.3,0.8,0.4c0.3,0.1,0.5,0.2,0.8,0.3
		c0.2,0.1,0.4,0.2,0.7,0.2c0.5,0.1,1,0.2,1.6,0.2s1-0.1,1.6-0.2c0.2,0,0.5-0.1,0.7-0.2c0.3-0.1,0.5-0.1,0.8-0.2
		c0.3-0.1,0.5-0.3,0.8-0.4c0.2-0.1,0.4-0.2,0.6-0.3c0.4-0.3,0.9-0.6,1.2-1l56.6-56.6c3.1-3.1,3.1-8.2,0-11.3
		c-3.1-3.1-8.2-3.1-11.3,0l-43,42.8V2258c0-4.4-3.6-8-8-8s-8,3.6-8,8v92.7l-42.9-42.9c-3.1-3.1-8.2-3.1-11.3,0
		c-3.1,3.1-3.1,8.2,0,11.3L324.225,2375.7z"/>
	<path d="M385.925,2394h-112c-4.4,0-8,3.6-8,8s3.6,8,8,8h112c4.4,0,8-3.6,8-8S390.325,2394,385.925,2394z"/>
</g>
<g>
	<path d="M885.988,2394.75h-112c-4.4,0-8,3.6-8,8s3.6,8,8,8h112c4.4,0,8-3.6,8-8S890.388,2394.75,885.988,2394.75z"/>
	<path d="M784.788,2379.55c10.2,0,28.6-3.2,35.6-10.2l67.9-67.9c9.4-9.4,9.4-24.6,0-33.9l-11.3-11.3c-4.5-4.5-10.5-7-17-7
		s-12.4,2.5-17,7l-16.7,16.7c-0.1,0.1-0.2,0.1-0.3,0.2c-0.1,0.1-0.1,0.2-0.2,0.3l-50.7,50.7c-6.2,6.2-8.8,20.3-9.5,24.5
		c-2.1,13-0.8,21.9,3.8,26.5C772.488,2378.05,777.388,2379.55,784.788,2379.55z M854.288,2267.55c3-3,8.3-3,11.3,0l11.3,11.3
		c3.1,3.1,3.1,8.2,0,11.3l-11.2,11.2c-10.9-11.2-17.8-18.3-22.4-22.8L854.288,2267.55z M786.388,2335.45l45.5-45.5
		c5.5,5.4,14.5,14.6,22.5,22.8l-45.4,45.3c-2.3,2.1-14.4,5.5-24.3,5.5c-1.9,0-3.1-0.1-3.9-0.3
		C779.488,2357.15,782.888,2339.15,786.388,2335.45z"/>
</g>
<g>
	<g>
		<path stroke="#231F20" stroke-width="4" stroke-linecap="round" stroke-linejoin="round" stroke-miterlimit="10" d="M829.975,2330
			"/>
	</g>
</g>
<g>
	<path d="M1385.925,2313.95c-4.4,0-8,3.6-8,8v48.1c0,4.3-3.5,7.9-7.9,7.9h-80.2c-4.3,0-7.9-3.5-7.9-7.9v-80.2c0-4.3,3.5-7.9,7.9-7.9
		h48.1c4.4,0,8-3.6,8-8c0-4.4-3.6-8-8-8h-48.1c-13.2,0-23.9,10.7-23.9,23.9v80.3c0,13.2,10.7,23.9,23.9,23.9h80.3
		c13.2,0,23.9-10.7,23.9-23.9v-48.2C1393.925,2317.55,1390.325,2313.95,1385.925,2313.95z"/>
	<path d="M1312.225,2347.65c1.6,1.6,3.6,2.3,5.7,2.3s4.1-0.8,5.7-2.3l64-64c3.1-3.1,3.1-8.2,0-11.3c-3.1-3.1-8.2-3.1-11.3,0l-64,64
		C1309.125,2339.45,1309.125,2344.45,1312.225,2347.65z"/>
</g>
<g>
	<path d="M1853.975,2330.1h-48c-4.4,0-8,3.6-8,8c0,4.4,3.6,8,8,8h48c4.4,0,8-3.6,8-8
		C1861.975,2333.7,1858.375,2330.1,1853.975,2330.1z"/>
	<path d="M1853.975,2362.1h-48c-4.4,0-8,3.6-8,8c0,4.4,3.6,8,8,8h48c4.4,0,8-3.6,8-8
		C1861.975,2365.7,1858.375,2362.1,1853.975,2362.1z"/>
	<path d="M1893.875,2305.6c0-0.3,0-0.6-0.1-0.9c0-0.2-0.1-0.5-0.2-0.7c-0.1-0.3-0.1-0.5-0.2-0.8c-0.1-0.2-0.2-0.5-0.3-0.7
		s-0.2-0.5-0.4-0.7c-0.2-0.2-0.3-0.5-0.5-0.7c-0.1-0.1-0.2-0.3-0.3-0.4l-44-48l-0.1-0.1c-0.2-0.2-0.4-0.4-0.6-0.6
		c-0.2-0.2-0.4-0.3-0.6-0.5c-0.2-0.2-0.5-0.3-0.7-0.4c-0.2-0.1-0.4-0.3-0.7-0.4c-0.2-0.1-0.5-0.2-0.7-0.3c-0.2-0.1-0.5-0.2-0.7-0.2
		c-0.2-0.1-0.5-0.1-0.7-0.1c-0.3,0-0.6-0.1-0.9-0.1c-0.1,0-0.1,0-0.2,0h-52c-13.2,0-24,10.8-24,24v112c0,13.2,10.8,24,24,24h80
		c13.2,0,24-10.8,24-24v-80C1893.975,2305.9,1893.975,2305.8,1893.875,2305.6z M1845.975,2274.3l21.8,23.8h-13.8c-4.4,0-8-3.6-8-8
		V2274.3z M1869.975,2394.1h-80c-4.4,0-8-3.6-8-8v-112c0-4.4,3.6-8,8-8h40v24c0,13.2,10.8,24,24,24h24v72
		C1877.975,2390.5,1874.375,2394.1,1869.975,2394.1z"/>
</g>
<g>
	<path d="M2313.975,2258h-48c-4.4,0-8,3.6-8,8v48c0,4.4,3.6,8,8,8h48c4.4,0,8-3.6,8-8v-48
		C2321.975,2261.6,2318.375,2258,2313.975,2258z M2305.975,2306h-32v-32h32V2306z"/>
	<path d="M2393.975,2258h-48c-4.4,0-8,3.6-8,8v48c0,4.4,3.6,8,8,8h48c4.4,0,8-3.6,8-8v-48
		C2401.975,2261.6,2398.375,2258,2393.975,2258z M2385.975,2306h-32v-32h32V2306z"/>
	<path d="M2313.975,2338h-48c-4.4,0-8,3.6-8,8v48c0,4.4,3.6,8,8,8h48c4.4,0,8-3.6,8-8v-48
		C2321.975,2341.6,2318.375,2338,2313.975,2338z M2305.975,2386h-32v-32h32V2386z"/>
	<path d="M2393.975,2338h-48c-4.4,0-8,3.6-8,8v48c0,4.4,3.6,8,8,8h48c4.4,0,8-3.6,8-8v-48
		C2401.975,2341.6,2398.375,2338,2393.975,2338z M2385.975,2386h-32v-32h32V2386z"/>
</g>
<g>
	<path d="M385.975,2750h-112c-13.2,0-24,10.8-24,24v112c0,13.2,10.8,24,24,24h112c13.2,0,24-10.8,24-24v-112
		C409.975,2760.8,399.175,2750,385.975,2750z M392.975,2889.8l-36.3-35.2l13.3-13.3c2.1-2.1,5.9-2.1,8,0l16,16v28.7
		C393.975,2887.4,393.575,2888.7,392.975,2889.8z M273.975,2766h112c4.4,0,8,3.6,8,8v60.7l-4.7-4.7c-8.4-8.5-22.2-8.5-30.7,0
		l-13.5,13.5l-23.9-23.1c-8.5-8.5-22.2-8.5-30.5-0.2l-24.8,23.3V2774C265.975,2769.6,269.575,2766,273.975,2766z M265.975,2886
		v-20.5l36-33.8c2.1-2.1,5.8-2.2,8.1,0.1l64.3,62.2h-100.4C269.575,2894,265.975,2890.5,265.975,2886z"/>
	<circle cx="349.975" cy="2802" r="12"/>
</g>
<path d="M2870.224,2256c-15.3,0-30.5,7-40.1,17.6c-9.7-10.6-24.9-17.6-40.2-17.6c-26.5,0-48,21.5-48,48c0,10.5,3.3,20.4,9.6,28.8
	c0.5,0.7,1.1,1.2,1.8,1.7l55,59l0,0c5.1,6.4,12.9,10.3,21.2,10.5c0.1,0,0.3,0,0.4,0h0.1h0.1c0.1,0,0.3,0,0.4,0
	c8.2-0.2,16-4.1,21.1-10.5l0,0l55-59c0.7-0.5,1.3-1,1.8-1.7c6.3-8.4,9.6-18.3,9.6-28.8C2918.224,2277.5,2896.724,2256,2870.224,2256
	z M2789.924,2272c13.7,0,28.1,8.4,32.8,19.2c0.1,0.2,0.2,0.3,0.3,0.5c0.1,0.3,0.3,0.5,0.4,0.8c0.1,0.2,0.3,0.4,0.5,0.6
	c0.2,0.2,0.3,0.4,0.5,0.6c0.2,0.2,0.4,0.3,0.6,0.5s0.4,0.3,0.6,0.5s0.5,0.3,0.8,0.4c0.2,0.1,0.3,0.2,0.5,0.3h0.1
	c0.3,0.1,0.6,0.2,0.8,0.3c0.2,0.1,0.4,0.1,0.7,0.2c0.3,0.1,0.5,0.1,0.8,0.1s0.5,0.1,0.8,0.1s0.5,0,0.8-0.1c0.3,0,0.5,0,0.8-0.1
	c0.2,0,0.4-0.1,0.7-0.2c0.3-0.1,0.6-0.2,0.9-0.3h0.1c0.2-0.1,0.3-0.2,0.5-0.3c0.3-0.1,0.5-0.3,0.8-0.4c0.2-0.1,0.4-0.3,0.6-0.5
	s0.4-0.3,0.6-0.5c0.2-0.2,0.3-0.4,0.5-0.6c0.2-0.2,0.3-0.4,0.5-0.6c0.2-0.2,0.3-0.5,0.4-0.8c0.1-0.2,0.2-0.3,0.3-0.5
	c4.7-10.8,19.1-19.2,32.8-19.2c17.6,0,32,14.4,32,32c0,6.6-2,12.9-5.8,18.2c-0.1,0.1-0.2,0.2-0.3,0.3l-56,60
	c-0.1,0.1-0.2,0.2-0.3,0.4c-0.1,0.1-0.2,0.2-0.3,0.3c-2.3,3-5.7,4.7-9.5,4.8c-3.8,0-7.2-1.8-9.5-4.8c-0.1-0.1-0.2-0.2-0.3-0.3
	c-0.1-0.1-0.2-0.2-0.3-0.4l-56-60c-0.1-0.1-0.2-0.2-0.3-0.3c-3.7-5.4-5.8-11.6-5.8-18.2
	C2757.924,2286.4,2772.324,2272,2789.924,2272z"/>
<path d="M908.625,2774.05l-22.6-22.7c-4.5-4.5-10.5-7-17-7c-6.4,0-12.5,2.5-17,7l-36.2,36.2c-4.5,4.5-7,10.5-7,17
	c0,1.6,0.2,3.2,0.5,4.8c-1.6-0.3-3.2-0.5-4.8-0.5c-6.4,0-12.4,2.5-17,7l-36.2,36.2c-4.5,4.5-7,10.5-7,17s2.5,12.4,7,17l22.6,22.6
	c4.5,4.5,10.5,7,17,7s12.5-2.5,17-7l36.2-36.2c5.9-5.9,8.1-14.1,6.5-21.7c1.6,0.3,3.2,0.5,4.8,0.5c6.4,0,12.4-2.5,17-7l36.2-36.2
	c4.5-4.5,7-10.5,7-17S913.225,2778.55,908.625,2774.05z M832.825,2861.15l-36.2,36.2c-3,3-8.3,3-11.3,0l-22.6-22.6
	c-1.5-1.5-2.3-3.5-2.3-5.7s0.8-4.2,2.3-5.7l36.2-36.2c1.5-1.5,3.5-2.3,5.7-2.3s4.2,0.8,5.7,2.3l5.7,5.7l-19.8,19.8
	c-3.1,3.1-3.1,8.2,0,11.3c1.6,1.6,3.6,2.3,5.7,2.3s4.1-0.8,5.7-2.3l19.8-19.8l5.7,5.7
	C835.925,2852.95,835.925,2858.05,832.825,2861.15z M897.325,2796.65l-36.2,36.2c-3,3-8.3,3-11.3,0l-5.7-5.7l19.8-19.8
	c3.1-3.1,3.1-8.2,0-11.3c-3.1-3.1-8.2-3.1-11.3,0l-19.8,19.8l-5.7-5.7c-1.5-1.5-2.3-3.5-2.3-5.7s0.8-4.2,2.3-5.7l36.2-36.2
	c1.5-1.5,3.5-2.3,5.7-2.3c2.1,0,4.2,0.8,5.7,2.3l22.6,22.6c1.5,1.5,2.3,3.5,2.3,5.7
	C899.725,2793.15,898.825,2795.15,897.325,2796.65z"/>
<g>
	<path d="M1329.975,2750c-35.3,0-64,28.7-64,64c0,33.2,41.9,96,64,96c22.1,0,64-62.8,64-96
		C1393.975,2778.7,1365.275,2750,1329.975,2750z M1329.975,2894c-11.1-1.6-48-51.9-48-80c0-26.5,21.5-48,48-48s48,21.5,48,48
		C1377.975,2842.1,1341.075,2892.4,1329.975,2894z"/>
	<circle cx="1329.975" cy="2814" r="16"/>
</g>
<path d="M1883.381,2805.464l-101.8-33.9c-2.9-1-6-0.2-8.2,1.9c-2.1,2.1-2.9,5.3-1.9,8.2l33.9,101.8c1,3.1,3.8,5.2,7,5.4
	c0.2,0,0.4,0,0.6,0c3,0,5.8-1.7,7.2-4.4l21.4-42.9l42.9-21.4c2.9-1.4,4.6-4.5,4.4-7.7
	C1888.581,2809.264,1886.481,2806.464,1883.381,2805.464z M1832.081,2828.564c-1.5,0.8-2.8,2-3.6,3.6l-14,28l-22.8-68.3l68.3,22.8
	L1832.081,2828.564z"/>
<g>
	<path d="M2329.95,2854c-4.4,0-8,3.6-8,8v24c0,4.4-3.6,8-8,8h-40c-4.4,0-8-3.6-8-8v-112c0-4.4,3.6-8,8-8h40c4.4,0,8,3.6,8,8v24
		c0,4.4,3.6,8,8,8c4.4,0,8-3.6,8-8v-24c0-13.2-10.8-24-24-24h-40c-13.2,0-24,10.8-24,24v112c0,13.2,10.8,24,24,24h40
		c13.2,0,24-10.8,24-24v-24C2337.95,2857.6,2334.35,2854,2329.95,2854z"/>
	<path d="M2408.35,2834.8c0.1-0.1,0.2-0.2,0.3-0.3c0,0,0,0,0-0.1c0.1-0.2,0.2-0.4,0.3-0.6c0.1-0.3,0.3-0.5,0.4-0.8s0.2-0.5,0.3-0.8
		c0.1-0.2,0.2-0.4,0.2-0.7c0.2-1,0.2-2.1,0-3.1l0,0c0-0.2-0.1-0.4-0.2-0.7c-0.1-0.3-0.1-0.5-0.2-0.8l0,0c-0.1-0.3-0.3-0.5-0.4-0.8
		c-0.1-0.2-0.2-0.4-0.3-0.6c-0.3-0.4-0.6-0.9-1-1.2l-32-32c-3.1-3.1-8.2-3.1-11.3,0c-3.1,3.1-3.1,8.2,0,11.3l18.3,18.3h-92.8
		c-4.4,0-8,3.6-8,8c0,4.4,3.6,8,8,8h92.7l-18.3,18.3c-3.1,3.1-3.1,8.2,0,11.3c1.6,1.6,3.6,2.3,5.7,2.3c2.1,0,4.1-0.8,5.7-2.3l32-32
		l0,0C2407.85,2835.4,2408.05,2835.1,2408.35,2834.8z"/>
</g>
<path d="M2885.975,2766h-112c-13.2,0-24,10.8-24,24v80c0,13.2,10.8,24,24,24h112c13.2,0,24-10.8,24-24v-80
	C2909.975,2776.8,2899.175,2766,2885.975,2766z M2773.975,2782h112c4.4,0,8,3.6,8,8v3.3l-64,35.6l-64-35.6v-3.3
	C2765.975,2785.6,2769.575,2782,2773.975,2782z M2885.975,2878h-112c-4.4,0-8-3.6-8-8v-58.4l60.1,33.4c1.2,0.7,2.5,1,3.9,1
	c1.4,0,2.7-0.3,3.9-1l60.1-33.4v58.4C2893.975,2874.4,2890.375,2878,2885.975,2878z"/>
<g>
	<g>
		<path d="M401.975,3338h-144c-4.4,0-8-3.6-8-8s3.6-8,8-8h144c4.4,0,8,3.6,8,8S406.375,3338,401.975,3338z"/>
	</g>
	<g>
		<path d="M401.975,3290h-144c-4.4,0-8-3.6-8-8s3.6-8,8-8h144c4.4,0,8,3.6,8,8S406.375,3290,401.975,3290z"/>
	</g>
	<g>
		<path d="M401.975,3386h-144c-4.4,0-8-3.6-8-8s3.6-8,8-8h144c4.4,0,8,3.6,8,8S406.375,3386,401.975,3386z"/>
	</g>
</g>
<g>
	<path d="M885.975,3250h-112c-13.2,0-24,10.8-24,24v128c0,3.2,1.9,6.2,4.9,7.4c1,0.4,2,0.6,3.1,0.6c2.1,0,4.1-0.8,5.7-2.3l29.7-29.7
		h92.6c13.2,0,24-10.8,24-24v-80C909.975,3260.8,899.175,3250,885.975,3250z M893.975,3354c0,4.4-3.6,8-8,8h-96
		c-2.1,0-4.2,0.8-5.7,2.3l-18.3,18.4V3346v-72c0-4.4,3.6-8,8-8h112c4.4,0,8,3.6,8,8V3354z"/>
	<path d="M869.975,3290h-80c-4.4,0-8,3.6-8,8s3.6,8,8,8h80c4.4,0,8-3.6,8-8S874.375,3290,869.975,3290z"/>
	<path d="M869.975,3322h-80c-4.4,0-8,3.6-8,8s3.6,8,8,8h80c4.4,0,8-3.6,8-8S874.375,3322,869.975,3322z"/>
</g>
<g>
	<path d="M1329.975,3346c13.2,0,24-10.8,24-24v-44c0-13.2-10.8-24-24-24c-13.2,0-24,10.8-24,24v44
		C1305.975,3335.2,1316.775,3346,1329.975,3346z M1321.975,3278c0-4.4,3.6-8,8-8c4.4,0,8,3.6,8,8v44c0,4.4-3.6,8-8,8
		c-4.4,0-8-3.6-8-8V3278z"/>
	<path d="M1385.975,3322c0-4.4-3.6-8-8-8c-4.4,0-8,3.6-8,8c0,22.1-17.9,40-40,40c-22.1,0-40-17.9-40-40c0-4.4-3.6-8-8-8
		c-4.4,0-8,3.6-8,8c0,28.2,20.9,51.5,48,55.4v12.6h-8c-4.4,0-8,3.6-8,8s3.6,8,8,8h32c4.4,0,8-3.6,8-8s-3.6-8-8-8h-8v-12.6
		C1365.075,3373.5,1385.975,3350.2,1385.975,3322z"/>
</g>
<g>
	<path d="M1829.975,3316c-7.7,0-14,6.3-14,14s6.3,14,14,14c7.7,0,14-6.3,14-14S1837.675,3316,1829.975,3316z"/>
	<path d="M1765.975,3316c-7.7,0-14,6.3-14,14s6.3,14,14,14c7.7,0,14-6.3,14-14S1773.675,3316,1765.975,3316z"/>
	<path d="M1893.975,3316c-7.7,0-14,6.3-14,14s6.3,14,14,14c7.7,0,14-6.3,14-14S1901.675,3316,1893.975,3316z"/>
</g>
<path d="M2385.975,3322h-48v-48c0-4.4-3.6-8-8-8c-4.4,0-8,3.6-8,8v48h-48c-4.4,0-8,3.6-8,8s3.6,8,8,8h48v48c0,4.4,3.6,8,8,8
	c4.4,0,8-3.6,8-8v-48h48c4.4,0,8-3.6,8-8S2390.375,3322,2385.975,3322z"/>
<g>
	<path d="M2886.575,3273.45c-15.1-15.1-35.2-23.4-56.6-23.4c-21.4,0-41.5,8.3-56.6,23.4c-31.2,31.2-31.2,81.9,0,113.1
		c15.1,15.1,35.2,23.4,56.6,23.4c21.4,0,41.5-8.3,56.6-23.4c15.1-15.1,23.4-35.1,23.4-56.5
		C2909.975,3308.65,2901.675,3288.55,2886.575,3273.45z M2875.275,3375.35c-12.1,12-28.2,18.7-45.3,18.7c-17.1,0-33.2-6.7-45.3-18.7
		c-25-25-25-65.6,0-90.5c12.1-12.1,28.2-18.7,45.3-18.7c17.1,0,33.2,6.7,45.3,18.7c12.1,12.1,18.7,28.2,18.7,45.3
		C2893.975,3347.25,2887.275,3363.25,2875.275,3375.35z"/>
	<path d="M2861.975,3322.05h-24v-24c0-4.4-3.6-8-8-8c-4.4,0-8,3.6-8,8v24h-24c-4.4,0-8,3.6-8,8c0,4.4,3.6,8,8,8h24v24
		c0,4.4,3.6,8,8,8c4.4,0,8-3.6,8-8v-24h24c4.4,0,8-3.6,8-8C2869.975,3325.65,2866.375,3322.05,2861.975,3322.05z"/>
</g>
<g>
	<path d="M345.725,3908.5c0.1,0,0.1,0,0.2-0.1c15.1-3.1,29.1-10.6,40.3-21.8c11.2-11.2,18.6-25.1,21.8-40.3c0-0.1,0-0.1,0.1-0.2
		c0.5-2.2,0.8-4.5,1-6.8c0-0.4,0.1-0.8,0.2-1.2c0.3-2.7,0.4-5.4,0.4-8.1c0-2.4-0.1-4.8-0.3-7.1c-0.1-0.8-0.2-1.5-0.3-2.3
		c-0.2-1.6-0.4-3.2-0.7-4.8c-0.2-0.8-0.3-1.7-0.5-2.5c-0.4-1.8-0.8-3.5-1.3-5.3c-0.2-0.8-0.5-1.7-0.7-2.5c-0.6-1.8-1.2-3.5-1.9-5.2
		c-0.3-0.8-0.7-1.6-1-2.4c-0.6-1.4-1.3-2.8-2-4.2c-0.3-0.7-0.7-1.3-1-2c-2.3-4.2-5-8.3-8.1-12c-0.2-0.2-0.4-0.4-0.6-0.7
		c-1.6-1.9-3.2-3.7-5-5.5l0,0l0,0c-7.2-7.2-15.7-13-25.4-17.1c-4.1-1.7-8.8,0.2-10.5,4.3c-1.7,4.1,0.2,8.8,4.3,10.5
		c7.8,3.3,14.6,8,20.4,13.7c1.4,1.4,2.7,2.9,4,4.4c0.1,0.2,0.3,0.3,0.4,0.5c2.5,3,4.6,6.3,6.5,9.6c0.3,0.5,0.5,1.1,0.8,1.6
		c0.6,1.1,1.1,2.3,1.6,3.4c0.3,0.6,0.6,1.3,0.8,1.9c0.6,1.4,1.1,2.8,1.5,4.2c0.2,0.6,0.4,1.3,0.6,1.9c0.4,1.4,0.8,2.8,1.1,4.2
		c0.1,0.7,0.3,1.3,0.4,2c0.2,1.3,0.4,2.5,0.6,3.8c0.1,0.6,0.2,1.2,0.2,1.8c0.2,1.9,0.3,3.8,0.3,5.7c0,2.2-0.1,4.4-0.3,6.5
		c0,0.3-0.1,0.6-0.1,0.9c-0.2,1.8-0.5,3.7-0.8,5.4c0,0.1,0,0.1,0,0.2c-5.2,24.8-24.8,44.4-49.6,49.6c-0.1,0-0.1,0-0.2,0
		c-1.8,0.4-3.6,0.6-5.4,0.8c-0.3,0-0.6,0.1-0.9,0.1c-2.1,0.2-4.3,0.3-6.5,0.3c-2.2,0-4.4-0.1-6.5-0.3c-0.3,0-0.6-0.1-0.9-0.1
		c-1.8-0.2-3.7-0.5-5.4-0.8c-0.1,0-0.1,0-0.2,0c-16.5-3.4-30.6-13.2-39.8-26.6c-0.1-0.1-0.2-0.2-0.2-0.3c-0.9-1.3-1.7-2.7-2.5-4
		c-0.3-0.5-0.6-0.9-0.8-1.4c-0.6-1.1-1.1-2.2-1.6-3.3c-0.4-0.8-0.8-1.6-1.1-2.5c-0.3-0.8-0.6-1.7-0.9-2.5c-0.4-1.2-0.9-2.3-1.2-3.5
		c-0.2-0.5-0.3-1-0.4-1.6c-0.4-1.5-0.8-3.1-1.1-4.6c0-0.1,0-0.2,0-0.3c-1.1-6-1.4-12-0.8-18c0-0.1,0-0.1,0-0.2
		c0.2-1.9,0.5-3.8,0.8-5.7c0-0.2,0.1-0.3,0.1-0.5c0.8-3.9,1.9-7.8,3.4-11.6c0-0.1,0.1-0.2,0.1-0.3c0.7-1.7,1.5-3.4,2.3-5
		c0.1-0.2,0.3-0.5,0.4-0.7c1.9-3.5,4.1-6.9,6.7-10.1c0.1-0.1,0.2-0.3,0.3-0.4c1.3-1.6,2.7-3.1,4.1-4.6c5.7-5.8,12.6-10.5,20.4-13.8
		c4.1-1.7,6-6.4,4.3-10.5c-1.7-4.1-6.4-6-10.5-4.3c-9.7,4.1-18.3,10-25.4,17.1l0,0c0,0,0,0.1-0.1,0.1c-1.8,1.8-3.5,3.7-5.2,5.7
		c-0.1,0.2-0.3,0.3-0.4,0.5c-3.2,4-6,8.2-8.4,12.7c-0.2,0.3-0.3,0.6-0.5,0.9c-1.1,2-2,4.1-2.9,6.3c-0.1,0.1-0.1,0.3-0.2,0.4
		c-1.9,4.6-3.3,9.5-4.3,14.4c0,0.2-0.1,0.4-0.1,0.6c-0.4,2.3-0.8,4.7-1,7.1c0,0.1,0,0.2,0,0.3c-0.2,2.5-0.4,5-0.4,7.6
		c0,5.1,0.5,10.1,1.5,14.9c0,0.1,0,0.3,0.1,0.4c0.4,2,0.9,3.9,1.4,5.8c0.2,0.6,0.3,1.3,0.5,1.9c0.5,1.5,1,3,1.6,4.5
		c0.4,1,0.7,2.1,1.1,3.1c0.4,1.1,1,2.1,1.5,3.1c0.6,1.4,1.3,2.7,2,4.1c0.3,0.6,0.8,1.3,1.1,1.9c1,1.7,1.9,3.3,3,4.9
		c0.1,0.2,0.3,0.4,0.4,0.6c2.7,4,5.8,7.8,9.4,11.4c11.2,11.2,25.1,18.7,40.3,21.8c0.1,0,0.1,0,0.2,0c2.3,0.5,4.5,0.8,6.8,1
		c0.4,0,0.8,0.1,1.1,0.2c2.7,0.3,5.4,0.4,8.1,0.4s5.4-0.1,8.1-0.4c0.4,0,0.8-0.1,1.2-0.2
		C341.225,3909.3,343.425,3908.9,345.725,3908.5z"/>
	<path d="M329.625,3838.1c4.4,0,8-3.6,8-8v-72c0-4.4-3.6-8-8-8s-8,3.6-8,8v72C321.625,3834.5,325.225,3838.1,329.625,3838.1z"/>
</g>
<path d="M887.874,3790h-1.8v-26.2c0-7.6-6.2-13.8-13.8-13.8h-84.5c-7.6,0-13.8,6.2-13.8,13.8v26.2h-1.8c-12.2,0-22.2,10-22.2,22.2
	v43.6c0,12.2,10,22.2,22.2,22.2h1.8v17.5c0,8,6.5,14.5,14.5,14.5h83c8,0,14.5-6.5,14.5-14.5V3878h1.8c12.2,0,22.2-9.9,22.2-22.2
	v-43.6C910.074,3799.9,900.074,3790,887.874,3790z M790.074,3766h80v24h-80V3766L790.074,3766z M870.074,3894h-80v-48h80V3894z
	 M894.074,3855.8c0,3.4-2.8,6.2-6.2,6.2h-1.8v-17.5c0-8-6.5-14.5-14.5-14.5h-83c-8,0-14.5,6.5-14.5,14.5v17.5h-1.8
	c-3.4,0-6.2-2.8-6.2-6.2v-43.6c0-3.4,2.8-6.2,6.2-6.2h115.6c3.4,0,6.2,2.8,6.2,6.2V3855.8L894.074,3855.8z"/>
<g>
	<path d="M1281.975,3846v-88c0-4.4-3.6-8-8-8c-4.4,0-8,3.6-8,8v88c-5.9,3-10,9-10,16s4.1,13.1,10,16v24c0,4.4,3.6,8,8,8
		c4.4,0,8-3.6,8-8v-24c5.9-3,10-9,10-16S1287.875,3848.9,1281.975,3846z"/>
	<path d="M1403.975,3862c0-7-4.1-13.1-10-16v-88c0-4.4-3.6-8-8-8c-4.4,0-8,3.6-8,8v88c-5.9,3-10,9-10,16s4.1,13.1,10,16v24
		c0,4.4,3.6,8,8,8c4.4,0,8-3.6,8-8v-24C1399.875,3875.1,1403.975,3869,1403.975,3862z"/>
	<path d="M1337.975,3774v-16c0-4.4-3.6-8-8-8c-4.4,0-8,3.6-8,8v16c-5.9,3-10,9-10,16s4.1,13.1,10,16v96c0,4.4,3.6,8,8,8
		c4.4,0,8-3.6,8-8v-96c5.9-3,10-9,10-16S1343.875,3776.9,1337.975,3774z"/>
</g>
<g>
	<path d="M1885.925,3829.95c-4.4,0-8,3.6-8,8v32.1c0,4.3-3.5,7.9-7.9,7.9h-80.2c-4.3,0-7.9-3.5-7.9-7.9v-80.2c0-4.3,3.5-7.9,7.9-7.9
		h32.1c4.4,0,8-3.6,8-8c0-4.4-3.6-8-8-8h-32.1c-13.2,0-23.9,10.7-23.9,23.9v80.3c0,13.2,10.7,23.9,23.9,23.9h80.3
		c13.2,0,23.9-10.7,23.9-23.9v-32.2C1893.925,3833.55,1890.325,3829.95,1885.925,3829.95z"/>
	<path d="M1885.925,3765.95h-32c-4.4,0-8,3.6-8,8c0,4.4,3.6,8,8,8h12.7l-54.3,54.3c-3.1,3.1-3.1,8.2,0,11.3c1.6,1.6,3.6,2.3,5.7,2.3
		s4.1-0.8,5.7-2.3l54.3-54.3v12.7c0,4.4,3.6,8,8,8s8-3.6,8-8v-32C1893.925,3769.55,1890.325,3765.95,1885.925,3765.95z"/>
</g>
<path d="M2386.575,3773.45c-15.1-15.1-35.2-23.4-56.6-23.4c-21.4,0-41.5,8.3-56.6,23.4c-31.2,31.2-31.2,81.9,0,113.1
	c15.1,15.1,35.2,23.4,56.6,23.4c21.4,0,41.5-8.3,56.6-23.4c15.1-15.1,23.4-35.1,23.4-56.5
	C2409.975,3808.65,2401.675,3788.55,2386.575,3773.45z M2393.975,3830.05c0,5.7-0.8,11.2-2.2,16.5l-22.2-22.2l-2.8-2.8l-25.5-25.5
	l21.2-21.2c4.6,2.7,8.9,6,12.8,9.8C2387.275,3796.85,2393.975,3812.95,2393.975,3830.05z M2307.375,3830.05l22.6-22.6l22.6,22.6
	l-22.6,22.6L2307.375,3830.05z M2329.975,3766.05c5.7,0,11.2,0.8,16.5,2.2l-22.2,22.2l-2.8,2.8l-25.5,25.5l-21.1-21.1
	c2.7-4.6,5.9-8.9,9.8-12.8C2296.775,3772.75,2312.875,3766.05,2329.975,3766.05z M2268.175,3813.55l22.2,22.2l0,0l28.3,28.3
	l-21.2,21.2c-4.6-2.7-8.9-6-12.8-9.8C2267.975,3858.55,2262.575,3834.85,2268.175,3813.55z M2329.975,3894.05
	c-5.7,0-11.2-0.8-16.5-2.2l22.2-22.2l28.3-28.3l21.2,21.2c-2.7,4.6-6,8.9-9.8,12.8
	C2363.175,3887.35,2347.075,3894.05,2329.975,3894.05z"/>
<path d="M2909.133,3812.85c-1.4-4.4-5.2-7.6-9.9-8.3l-41.4-5.3l-16.4-43.4c-0.1-0.2-0.2-0.5-0.3-0.7c-2.1-4.2-6.2-6.8-10.9-6.8
	s-8.8,2.6-10.9,6.8c-0.1,0.2-0.2,0.5-0.3,0.7l-16.4,43.4l-42,5.3c-4.6,0.7-8.4,3.8-9.8,8.3c-1.4,4.5-0.3,9.2,3.1,12.5
	c0.2,0.2,0.3,0.3,0.5,0.5l31,25.3l-16.8,44.7c-0.2,0.5-0.3,1-0.4,1.5c-0.6,3.5,0.4,7.1,2.7,9.9s5.7,4.4,9.3,4.4c2,0,3.9-0.5,5.7-1.4
	c0.1-0.1,0.3-0.1,0.4-0.2l43.9-26.3l43.9,26.3c0.1,0.1,0.3,0.1,0.4,0.2c1.8,0.9,3.7,1.4,5.7,1.4c3.6,0,7-1.6,9.3-4.3
	c2.3-2.7,3.3-6.3,2.7-9.9c-0.1-0.5-0.2-1-0.4-1.5l-16.9-44.8l30.6-25.3c0.2-0.1,0.3-0.3,0.5-0.4
	C2909.333,3822.15,2910.533,3817.35,2909.133,3812.85z M2862.233,3840.85c-0.2,0.1-0.3,0.3-0.5,0.4c-2.9,2.8-4.2,6.8-3.5,10.8
	c0.1,0.5,0.2,1,0.4,1.4l13.8,36.9l-36.3-21.8c-0.1-0.1-0.3-0.1-0.4-0.2c-1.7-0.9-3.7-1.4-5.7-1.4s-3.9,0.5-5.7,1.4
	c-0.1,0.1-0.3,0.1-0.4,0.2l-36.2,21.8l13.8-36.9c0.2-0.5,0.3-1,0.4-1.5c0.7-3.9-0.6-8-3.5-10.8c-0.2-0.2-0.3-0.3-0.5-0.5l-26.3-21.3
	l35.4-4.5c4-0.6,7.4-3.1,9.2-6.6c0.1-0.2,0.2-0.5,0.3-0.7l13.6-36l13.6,36c0.1,0.2,0.2,0.5,0.3,0.7c1.8,3.6,5.2,6.1,9.3,6.7
	l34.9,4.5L2862.233,3840.85z"/>
<g>
	<path d="M401.975,4286h-40v-13.2c0-10.4-8.4-18.8-18.8-18.8h-27c-10,0-18.2,8.1-18.2,18.1c0,6.3,0,10.7,0,13.9h-40
		c-4.4,0-8,3.6-8,8s3.6,8,8,8h8.7l7.3,80.4c0.2,13,10.9,23.6,24,23.6h64c13.1,0,23.8-10.6,24-23.6l7.3-80.4h8.7c4.4,0,8-3.6,8-8
		S406.375,4286,401.975,4286z M313.975,4272.2c0-1.2,1-2.2,2.2-2.2h27c1.6,0,2.8,1.3,2.8,2.8v13.2h-32.1
		C313.875,4283.5,313.875,4279.3,313.975,4272.2z M369.975,4381.3c0,0.2,0,0.5,0,0.7c0,4.4-3.6,8-8,8h-64c-4.4,0-8-3.6-8-8
		c0-0.2,0-0.5,0-0.7l-7.2-79.3h94.5L369.975,4381.3z"/>
	<path d="M313.975,4374c4.4,0,8-3.6,8-8v-40c0-4.4-3.6-8-8-8s-8,3.6-8,8v40C305.975,4370.4,309.575,4374,313.975,4374z"/>
	<path d="M345.975,4374c4.4,0,8-3.6,8-8v-40c0-4.4-3.6-8-8-8s-8,3.6-8,8v40C337.975,4370.4,341.575,4374,345.975,4374z"/>
</g>
<path d="M893.925,4277.9h-24v-16c0-4.4-3.6-8-8-8h-64c-4.4,0-8,3.6-8,8v16h-24c-4.4,0-8,3.6-8,8v20v12c0,13.2,10.8,24,24,24
	c3.7,0,7.3-0.9,10.4-2.4c4.7,12.9,15.8,22.8,29.6,25.6v24.8c0,0.1,0,0.1,0,0.2c-7.8,0-13.5,0-14.9-0.1c-4.3-0.6-8.3,2.3-9,6.6
	c-0.7,4.4,2.2,8.5,6.6,9.2c1.3,0.2,7,0.3,16.8,0.3c8.1,0,19-0.1,32.7-0.2c4.4-0.1,8-3.7,7.9-8.1c-0.1-4.4-3.6-7.9-8-7.9h-0.1
	c-5.3,0.1-10.7,0.1-15.9,0.1v-0.1v-24.8c13.7-2.8,24.9-12.7,29.6-25.6c3.2,1.5,6.7,2.4,10.4,2.4c13.2,0,24-10.8,24-24v-12v-20
	C901.925,4281.5,898.325,4277.9,893.925,4277.9z M781.925,4325.9c-4.4,0-8-3.6-8-8v-12v-12h16v24
	C789.925,4322.3,786.325,4325.9,781.925,4325.9z M829.925,4349.9c-13.2,0-24-10.8-24-24v-56h48v56
	C853.925,4339.1,843.125,4349.9,829.925,4349.9z M885.925,4317.9c0,4.4-3.6,8-8,8c-4.4,0-8-3.6-8-8v-24h16v12V4317.9z"/>
<g>
	<path d="M1325.683,4341.8h8.5c19.7,0,35.7-16,35.7-35.8v-20.3c0-19.7-16-35.7-35.7-35.7h-8.5c-19.7,0-35.8,16-35.8,35.8v20.2
		C1289.883,4325.7,1305.883,4341.8,1325.683,4341.8z M1305.883,4285.8c0-10.9,8.9-19.8,19.8-19.8h8.5c10.9,0,19.7,8.9,19.7,19.8
		v20.2c0,10.9-8.9,19.8-19.8,19.8h-8.5c-10.9,0-19.7-8.9-19.7-19.8V4285.8z"/>
	<path d="M1417.283,4373.7c0-0.1,0-0.2,0-0.2c0.2-3.3-1.7-6.4-4.9-7.8c-18.9-7.9-49.7-12.6-82.5-12.6c-34.2,0-64.5,4.7-83.2,12.9
		c-3.2,1.4-4.9,4.6-4.7,7.8c0,0.1,0,0.3,0,0.4v15.8c0,11,9,20,20,20h136c11,0,20-9,20-20.3L1417.283,4373.7z M1397.883,4394h-136
		c-2.2,0-4-1.8-4-4v-11.2c17-6.1,43.3-9.7,72-9.7c27.6,0,54.3,3.6,71.6,9.6l0.4,11.3C1401.883,4392.2,1400.083,4394,1397.883,4394z"
		/>
</g>
<path d="M1885.975,4250h-112c-13.2,0-24,10.8-24,24v112c0,13.2,10.8,24,24,24h112c13.2,0,24-10.8,24-24v-112
	C1909.975,4260.8,1899.175,4250,1885.975,4250z M1877.975,4298h16v24h-16V4298z M1861.975,4322h-64v-56h64V4322z M1781.975,4322h-16
	v-24h16V4322z M1765.975,4338h16v24h-16V4338z M1797.975,4338h64v56h-64V4338z M1877.975,4338h16v24h-16V4338z M1893.975,4274v8h-16
	v-16h8C1890.375,4266,1893.975,4269.6,1893.975,4274z M1773.975,4266h8v16h-16v-8C1765.975,4269.6,1769.575,4266,1773.975,4266z
	 M1765.975,4386v-8h16v16h-8C1769.575,4394,1765.975,4390.4,1765.975,4386z M1885.975,4394h-8v-16h16v8
	C1893.975,4390.4,1890.375,4394,1885.975,4394z"/>
</svg>
